<svg width="498.696" height="316.424" viewBox="0 0 131.947 83.72" xml:space="preserve" xmlns="http://www.w3.org/2000/svg">
  <path d="M17.438 21.937H6.562a2.5 2.5 0 0 1-2.5-2.5v-.827c0-3.969 3.561-7.2 7.938-7.2s7.938 3.229 7.938 7.2v.827a2.5 2.5 0 0 1-2.5 2.5z" style="fill:#000" transform="matrix(3.44267 0 0 3.44267 24.457 8.199)"/>
  <path d="M65.77 42.319c-12.038.003-18.067-14.548-9.557-23.06 8.509-8.511 23.062-2.486 23.062 9.55-.006 7.458-6.049 13.502-13.506 13.51Z"/>
  <path d="M29.477 11.532h-7.592a1.745 1.745 0 0 1-1.746-1.745V9.21c0-2.771 2.486-5.027 5.542-5.027 3.056 0 5.542 2.254 5.542 5.027v.577c0 .964-.782 1.745-1.746 1.745z" style="fill:#000;stroke-width:.698111" transform="matrix(3.44267 0 0 3.44267 24.457 8.199)"/>
  <path d="M25.681 3.137c-2.44 0-3.663-2.95-1.938-4.676C25.47-3.265 28.42-2.043 28.42.397a2.742 2.742 0 0 1-2.739 2.74Z" style="stroke-width:.698111" transform="matrix(3.44267 0 0 3.44267 24.457 8.199)"/>
  <path d="M2.234 11.498H-5.36a1.745 1.745 0 0 1-1.745-1.745v-.577c0-2.771 2.486-5.027 5.541-5.027 3.056 0 5.542 2.254 5.542 5.027v.577c0 .964-.781 1.745-1.745 1.745z" style="fill:#000;stroke-width:.698111" transform="matrix(3.44267 0 0 3.44267 24.457 8.199)"/>
  <path d="M-1.563 3.103c-2.44 0-3.663-2.95-1.937-4.676C-1.775-3.3 1.176-2.078 1.176.363a2.742 2.742 0 0 1-2.739 2.74Z" style="stroke-width:.698111" transform="matrix(3.44267 0 0 3.44267 24.457 8.199)"/>
</svg>
