<?xml version="1.0" standalone="no"?>
<!DOCTYPE svg PUBLIC "-//W3C//DTD SVG 1.1//EN" "http://www.w3.org/Graphics/SVG/1.1/DTD/svg11.dtd">
<svg xmlns="http://www.w3.org/2000/svg">
<defs >
<font id="BalooDa2" horiz-adv-x="582" ><font-face
    font-family="Baloo Da 2"
    units-per-em="1000"
    panose-1="0 0 0 0 0 0 0 0 0 0"
    ascent="1095"
    descent="-589"
    alphabetic="0" />
<glyph unicode=" " horiz-adv-x="200" />
<glyph unicode="!" horiz-adv-x="286" d="M219 564Q219 539 218 498T214 406T208 308T198 220Q190 214 173 210T142 206Q118 206 101 215T79 246Q76 270 73 315T67 414T63 520T61 611Q99 633 144 633Q180 633 199 616T219 564ZM56 68Q56 105 79 129T142 153Q182
153 205 129T228 68Q228 32 205 8T142 -16Q103 -16 80 8T56 68Z" />
<glyph unicode="&quot;" horiz-adv-x="375" d="M144 388Q134 383 122 381T93 379Q70 379 55 388T38 419L27 612Q54 633 96 633Q129 633 146 620T163 578Q163 560 160 525T153 452T144 388ZM328 388Q318 383 306 381T276 379Q254 379 239 388T222 419L210 612Q223
622 241 627T280 633Q313 633 329 620T346 578Q346 560 344 525T337 452T328 388Z" />
<glyph unicode="#" horiz-adv-x="702" d="M48 137Q43 146 38 160T33 191Q33 222 47 235T84 248H628Q633 239 638 225T643 194Q643 165 629 151T592 137H48ZM76 367Q70 376 66 390T61 421Q61 451 75 464T112 478H656Q661 469 666 455T671 424Q671 394 657 381T619
367H76ZM232 -1Q221 -3 211 -3T190 -4Q158 -4 139 9T119 56Q119 77 125 102T134 144L236 614Q248 616 259 616T279 616Q311 616 330 604T350 558Q350 537 344 513T334 468L232 -1ZM466 -1Q455 -3 445 -3T424 -4Q392 -4 373 9T353 56Q353 77 359 102T368 144L470
614Q482 616 493 616T513 616Q545 616 564 604T584 558Q584 537 578 513T568 468L466 -1Z" />
<glyph unicode="$" horiz-adv-x="554" d="M341 58V-87Q332 -89 317 -91T282 -94Q245 -94 228 -81T210 -32V58H341ZM210 530V696Q219 698 234 700T268 703Q306 703 323 690T341 641V530H210ZM256 107Q309 107 332 126T356 173Q356 198 338 213T283 241L230 258Q176
276 135 298T71 354T48 443Q48 526 111 575T286 624Q343 624 387 613T457 581T483 528Q483 506 472 489T446 461Q423 476 385 488T301 500Q253 500 229 484T204 443Q204 423 220 411T269 388L324 370Q415 342 464 296T513 172Q513 88 448 36T260 -17Q199 -17 151
-4T75 34T47 92Q47 118 62 136T96 164Q123 142 163 125T256 107Z" />
<glyph unicode="%" horiz-adv-x="792" d="M347 462Q347 390 303 349T191 307Q123 307 79 348T35 462Q35 534 79 575T191 616Q259 616 303 575T347 462ZM144 462Q144 430 157 414T191 397Q212 397 225 413T239 462Q239 494 226 509T191 525Q171 525 158 510T144
462ZM545 617Q576 612 600 600T624 567Q624 553 617 538T599 506L247 -7Q213 -4 191 9T168 43Q168 57 175 71T194 103L545 617ZM757 147Q757 75 713 34T601 -8Q534 -8 490 33T445 147Q445 219 489 260T601 301Q669 301 713 260T757 147ZM554 147Q554 115 567 99T601
82Q622 82 635 98T649 147Q649 178 636 194T601 210Q581 210 568 194T554 147Z" />
<glyph unicode="&amp;" horiz-adv-x="664" d="M487 62Q447 21 391 3T279 -16Q203 -16 150 10T69 82T40 186Q40 236 60 273T112 335T183 373L251 283Q232 278 216 265T190 235T180 194Q180 153 207 126T287 99Q308 99 342 108T408 150L452 217Q465 250 469 292T474
372Q490 379 505 382T535 385Q575 385 589 363T603 304Q603 260 589 209T543 113L487 62ZM566 -14Q531 -14 497 20L210 311L184 350Q147 390 137 419T126 474Q126 516 147 549T209 603T306 623Q367 623 393 602T420 549Q420 534 414 520T395 494Q383 500 367 503T332
507Q303 507 285 494T267 456Q267 437 279 421T316 379L639 61Q637 29 616 8T566 -14Z" />
<glyph unicode="&apos;" horiz-adv-x="199" d="M152 391Q143 386 129 383T96 379Q72 379 56 389T38 422L27 609Q39 619 58 626T100 633Q134 633 152 619T171 575Q171 557 168 523T161 453T152 391Z" />
<glyph unicode="(" horiz-adv-x="292" d="M218 -131Q184 -131 160 -110T118 -56Q86 -1 66 80T45 268Q45 374 66 456T118 591Q136 622 160 643T218 665Q242 665 260 652T288 623Q239 551 213 467T186 268Q186 154 211 71T288 -88Q279 -104 261 -117T218 -131Z" />
<glyph unicode=")" horiz-adv-x="292" d="M75 -131Q109 -131 133 -110T175 -56Q207 -1 227 80T248 268Q248 374 227 456T175 591Q157 622 133 643T75 665Q51 665 33 652T5 623Q54 551 80 467T107 268Q107 154 82 71T5 -88Q14 -104 32 -117T75 -131Z" />
<glyph unicode="*" horiz-adv-x="338" d="M183 446L25 492Q20 508 20 525Q20 547 33 559T69 572Q75 572 83 570T99 566L151 545L183 446ZM130 360Q125 359 120 359T110 358Q80 358 65 370T50 402Q50 413 55 423T69 445L106 491L225 500L130 360ZM197 538L295 403Q289
383 275 371T240 358Q219 358 208 370T186 399L143 468L197 538ZM277 583Q292 577 303 563T314 530Q314 509 303 501T273 484L205 456L136 519L277 583ZM124 471L123 633Q130 637 142 643T171 649Q191 649 204 639T217 607Q217 601 216 583T214 544T212 515L124
471Z" />
<glyph unicode="+" horiz-adv-x="546" d="M50 233Q44 243 40 257T35 289Q35 321 50 335T90 350H496Q501 341 506 325T511 292Q511 260 496 247T456 233H50ZM341 55Q332 53 315 50T280 47Q245 47 227 59T208 111V524Q217 526 234 529T269 533Q304 533 322 520T341 469V55Z" />
<glyph unicode="," horiz-adv-x="219" d="M129 -78Q101 -116 56 -116Q18 -116 -9 -93Q4 -56 15 -15T36 67T52 141Q66 148 86 153T128 159Q156 159 176 147T196 102Q196 76 186 42T160 -25T129 -78Z" />
<glyph unicode="-" horiz-adv-x="363" d="M52 197Q46 207 41 222T36 255Q36 287 51 301T91 316H311Q316 307 321 291T327 258Q327 226 312 212T272 197H52Z" />
<glyph unicode="." horiz-adv-x="214" d="M21 71Q21 108 44 133T107 159Q147 159 170 134T193 71Q193 35 170 10T107 -16Q68 -16 45 9T21 71Z" />
<glyph unicode="/" horiz-adv-x="334" d="M128 -106Q116 -107 105 -107T83 -108Q48 -108 28 -93T8 -42Q8 -19 15 5T27 47L205 705Q218 707 230 707T251 708Q285 708 305 693T326 645Q326 621 319 598T306 552L128 -106Z" />
<glyph unicode="0" horiz-adv-x="600" d="M412 304Q412 371 398 415T359 481T299 504Q266 504 241 482T203 415T189 304Q189 204 218 154T299 103Q353 103 382 153T412 304ZM300 -15Q223 -15 165 20T73 127T40 304Q40 410 74 480T167 586T300 622Q374 622 433
587T526 481T561 304Q561 198 528 127T435 21T300 -15Z" />
<glyph unicode="1" horiz-adv-x="384" d="M160 154V467L53 429Q38 438 25 454T11 497Q11 550 75 571L194 615H227Q264 615 285 594T307 534V154H160ZM307 264V1Q298 -2 280 -5T241 -8Q199 -8 180 7T160 61V264H307Z" />
<glyph unicode="2" horiz-adv-x="519" d="M59 526Q59 557 82 578T145 611T238 622Q313 622 364 599T441 534T468 439Q468 386 439 336T345 232L206 116H461Q466 107 471 92T476 59Q476 28 462 14T425 0H76Q57 13 47 33T36 81Q36 110 48 131T76 165L224 297Q279
344 299 374T319 432Q319 464 294 483T223 503Q182 503 150 490T96 462Q81 473 70 489T59 526Z" />
<glyph unicode="3" horiz-adv-x="515" d="M229 623Q338 623 398 577T458 450Q458 416 446 390T413 345T370 317Q398 308 421 289T459 241T474 169Q474 111 443 70T358 7T231 -15Q166 -15 121 -2T51 33T27 82Q27 106 38 123T67 150Q89 136 123 120T213 104Q267
104 296 125T325 181Q325 216 301 235T223 254H132Q126 263 122 277T117 311Q117 331 121 346T132 370H221Q268 370 289 387T310 436Q310 468 284 486T207 504Q165 504 133 494T79 468Q64 478 54 494T43 531Q43 561 66 581T132 612T229 623Z" />
<glyph unicode="4" horiz-adv-x="589" d="M292 603Q309 608 330 611T369 615Q395 615 418 608T457 584T472 533V246H557Q562 237 567 221T572 187Q572 156 558 141T520 126H472V0Q464 -1 445 -4T407 -8Q370 -8 349 3T328 54V126H78Q59 137 45 157T30 208Q30 224
34 243T48 276L292 603ZM336 466H333L185 246H335L336 466Z" />
<glyph unicode="5" horiz-adv-x="526" d="M209 518L197 373Q215 379 237 384T291 389Q358 389 403 364T472 294T496 192Q496 136 470 89T390 14T252 -15Q192 -15 147 -3T77 33T51 88Q51 113 66 130T98 157Q124 136 158 120T243 103Q296 103 321 128T347 191Q347
228 323 250T251 273Q222 273 201 266T157 247Q113 249 88 271T62 337Q62 341 62 346T64 365L77 527Q80 564 100 586T159 608H234L209 518ZM171 608H451Q457 599 462 584T467 551Q467 519 453 504T414 488H171V608Z" />
<glyph unicode="6" horiz-adv-x="556" d="M476 541Q476 522 468 505T446 479Q421 491 392 498T336 505Q272 505 234 467T187 355Q207 371 242 385T319 399Q410 399 465 347T520 196Q520 138 493 90T415 14T288 -15Q213 -15 157 19T71 120T40 287Q40 373 61 436T120
541T208 602T319 622Q367 622 402 613T457 586T476 541ZM289 103Q328 103 349 128T371 196Q371 238 349 261T288 285Q260 285 234 273T192 242L193 225Q193 164 220 134T289 103Z" />
<glyph unicode="7" horiz-adv-x="476" d="M425 608Q440 598 452 581T464 539Q464 524 461 510T451 480L232 -6Q220 -7 210 -7T189 -7Q151 -7 127 8T102 59Q102 78 111 99T134 149L300 488H37Q32 498 27 513T21 547Q21 579 36 593T74 608H425Z" />
<glyph unicode="8" horiz-adv-x="562" d="M265 358Q314 369 341 389T368 444Q368 476 346 494T282 512Q244 512 222 493T199 444Q199 418 212 402T249 376T302 363L389 330Q423 319 455 300T508 249T529 165Q529 108 498 68T412 5T282 -17Q210 -17 155 5T69 68T38
166Q38 218 62 253T123 310T200 339L265 358ZM308 276Q246 267 216 240T186 174Q186 137 212 117T282 96Q327 96 354 116T381 174Q381 216 342 242T233 272L188 302Q127 318 91 355T54 451Q54 505 82 543T163 603T282 624Q390 624 451 578T513 451Q513 392 479
358T394 307L308 276Z" />
<glyph unicode="9" horiz-adv-x="557" d="M72 67Q72 86 81 103T102 129Q127 118 157 111T216 103Q262 103 296 120T350 171T369 253Q357 243 338 234T296 219T244 213Q185 213 138 234T64 300T37 411Q37 470 64 517T143 593T268 622Q345 622 400 588T486 486T517
320Q517 206 482 132T383 22T237 -15Q163 -15 118 6T72 67ZM276 325Q303 325 327 337T365 368V375Q365 437 340 470T267 504Q229 504 207 480T184 414Q184 371 210 348T276 325Z" />
<glyph unicode=":" horiz-adv-x="241" d="M39 394Q39 431 62 456T125 482Q164 482 187 457T211 394Q211 358 188 333T125 307Q86 307 63 332T39 394ZM34 71Q34 108 57 133T120 159Q160 159 183 134T207 71Q207 35 184 10T120 -16Q81 -16 58 9T34 71Z" />
<glyph unicode=";" horiz-adv-x="250" d="M40 394Q40 431 63 456T126 482Q166 482 189 457T213 394Q213 358 190 333T126 307Q87 307 64 332T40 394ZM144 -78Q116 -116 71 -116Q33 -116 6 -93Q19 -56 30 -15T51 67T67 141Q81 148 101 153T143 159Q171 159 191
147T211 102Q211 76 201 42T175 -25T144 -78Z" />
<glyph unicode="&lt;" horiz-adv-x="486" d="M453 151Q455 145 455 138T455 125Q455 95 441 72T388 49Q371 49 354 56T311 77L58 208Q36 237 36 284Q36 319 46 338T76 369L383 524Q424 513 439 494T455 452Q455 421 439 404T394 372L176 282L453 151Z" />
<glyph unicode="=" horiz-adv-x="511" d="M51 341Q45 350 41 364T37 396Q37 428 52 442T91 457H460Q465 448 469 433T474 399Q474 368 459 355T420 341H51ZM51 133Q45 143 41 157T37 189Q37 221 52 235T91 250H460Q465 241 469 225T474 192Q474 160 459 147T420 133H51Z" />
<glyph unicode="&gt;" horiz-adv-x="483" d="M33 419Q32 425 32 432T31 446Q31 475 46 498T97 521Q115 521 134 513T175 494L425 365Q447 336 447 289Q447 254 437 235T408 204L106 49Q65 60 50 79T34 121Q34 151 50 168T95 201L307 292L33 419Z" />
<glyph unicode="?" horiz-adv-x="488" d="M131 208Q116 218 104 238T91 285Q91 311 105 325T148 346L224 365Q260 375 278 392T296 440Q296 466 274 487T199 508Q159 508 122 498T61 471Q47 483 36 500T25 539Q25 586 79 609T218 633Q293 633 345 609T425 541T452
440Q452 354 397 303T231 229L131 208ZM103 69Q103 106 126 130T189 154Q229 154 252 130T276 69Q276 32 253 9T189 -15Q150 -15 127 8T103 69Z" />
<glyph unicode="@" horiz-adv-x="1052" d="M455 199Q455 153 478 133T534 113Q567 113 589 129T631 175L664 56Q640 32 601 16T509 0Q420 0 364 52T308 198Q308 271 339 325T425 409T555 439Q607 439 645 427T711 397Q750 371 750 334Q750 329 750 323T749 312L720
55L585 53L610 310Q600 316 587 319T553 323Q512 323 484 291T455 199ZM632 32Q633 54 644 74T676 106T723 119Q729 116 739 112T761 108Q811 108 838 155T866 275Q866 356 826 417T715 513T551 548Q444 548 363 504T236 382T191 204Q191 108 231 38T342 -71T503
-109Q546 -109 575 -105T625 -97Q632 -107 637 -121T642 -148Q642 -172 629 -189T584 -216T493 -225Q428 -225 364 -209T244 -160T144 -75T76 45T51 204Q51 310 88 394T193 537T351 628T550 660Q651 660 735 633T879 555T973 433T1006 274Q1006 142 942 69T761
-5Q730 -5 695 4T632 32Z" />
<glyph unicode="A" horiz-adv-x="618" d="M309 481Q299 449 286 410T258 328T230 243L212 154Q206 135 201 114T189 73T178 34T169 0Q157 -3 143 -6T110 -10Q69 -10 47 5T25 48Q25 61 28 74T37 104Q46 136 62 186T99 295T139 410T176 516T205 591Q220 600 250
607T310 615Q353 615 386 603T429 563Q449 510 471 441T516 295T560 148T598 19Q588 7 567 -1T518 -9Q476 -9 460 5T434 50L402 163L385 247Q372 292 359 334T335 414T315 481H309ZM205 253H439L459 135H146L205 253Z" />
<glyph unicode="B" horiz-adv-x="614" d="M389 256H166V364H389V256ZM326 339Q409 339 463 319T546 263T574 176Q574 79 502 32T297 -15Q273 -15 243 -13T181 -6T123 8Q71 27 71 75V553Q71 573 82 583T112 601Q146 612 194 617T293 622Q416 622 484 580T552 449Q552
401 524 367T443 316T313 298L306 364Q355 364 378 383T401 437Q401 470 374 488T294 506Q275 506 254 505T219 501V111Q235 106 260 105T307 103Q358 103 388 122T419 182Q419 220 393 238T314 256L326 339Z" />
<glyph unicode="C" horiz-adv-x="575" d="M539 524Q539 502 527 485T500 458Q475 475 444 488T369 501Q315 501 277 478T217 411T196 303Q196 206 244 156T376 106Q420 106 451 118T508 146Q523 135 532 118T542 77Q542 57 532 41T496 12Q477 2 443 -7T357 -17Q269
-17 197 17T83 123T40 303Q40 407 81 478T193 587T348 624Q407 624 450 611T516 575T539 524Z" />
<glyph unicode="D" horiz-adv-x="663" d="M467 304Q467 206 420 157T292 108Q275 108 256 109T222 114V494Q238 497 255 498T290 499Q342 499 382 478T444 413T467 304ZM623 306Q623 413 580 483T461 587T281 622Q243 622 198 618T112 601Q93 594 82 584T71 553V74Q71
27 123 8Q162 -6 210 -10T291 -15Q391 -15 465 20T581 127T623 306Z" />
<glyph unicode="E" horiz-adv-x="544" d="M219 423V7Q210 4 192 1T152 -2Q115 -2 93 20T71 79V423H219ZM71 183V526Q71 563 93 585T152 607Q173 607 191 604T219 598V183H71ZM152 369H454Q460 359 464 344T469 311Q469 279 455 265T417 250H152V369ZM152 118H487Q493
109 497 94T502 59Q502 28 488 13T450 -2H152V118ZM152 607H482Q488 597 493 582T498 549Q498 517 484 502T445 487H152V607Z" />
<glyph unicode="F" horiz-adv-x="528" d="M71 249V526Q71 563 93 585T152 607Q173 607 192 604T221 598V249H71ZM150 348H450Q456 338 461 323T467 289Q467 258 453 243T413 227H150V348ZM152 607H485Q491 597 495 582T500 548Q500 516 486 500T447 484H152V607ZM223
309V1Q213 -1 194 -4T153 -7Q108 -7 90 9T71 64V309H223Z" />
<glyph unicode="G" horiz-adv-x="658" d="M603 90Q603 63 592 49T558 21Q531 6 480 -5T378 -17Q282 -17 206 16T85 120T40 302Q40 408 85 479T206 587T376 624Q437 624 483 611T553 575T578 523Q578 501 567 484T539 457Q514 472 476 486T387 501Q331 501 288
477T220 409T196 303Q196 237 219 193T285 128T380 106Q406 106 426 110T458 121V239H340Q334 248 330 263T325 297Q325 328 339 342T377 357H545Q572 357 587 342T603 299V90Z" />
<glyph unicode="H" horiz-adv-x="668" d="M223 422V1Q213 -1 194 -4T153 -7Q108 -7 90 9T71 64V422H223ZM71 232V608Q81 610 101 613T141 616Q184 616 203 601T223 545V232H71ZM597 422V1Q587 -1 567 -4T526 -7Q482 -7 464 9T445 64V422H597ZM445 232V608Q455
610 475 613T515 616Q558 616 577 601T597 543V232H445ZM140 244V365H531V244H140Z" />
<glyph unicode="I" horiz-adv-x="294" d="M223 422V1Q213 -1 194 -4T153 -7Q108 -7 90 9T71 64V422H223ZM71 232V608Q82 610 102 613T142 616Q185 616 204 601T223 545V232H71Z" />
<glyph unicode="J" horiz-adv-x="405" d="M337 290V172Q337 113 314 71T249 8T145 -14Q92 -14 57 4T22 65Q22 84 28 97T41 119Q59 114 74 112T107 109Q148 109 166 129T185 190V290H337ZM185 226V608Q195 610 215 613T255 616Q298 616 317 601T337 545V226H185Z" />
<glyph unicode="K" horiz-adv-x="603" d="M323 343Q407 253 473 183T580 71Q580 33 556 12T498 -10Q463 -10 440 8T395 50L154 322L323 343ZM135 261L448 612Q505 612 530 590T556 537Q556 515 545 495T508 450L327 269L135 261ZM223 423V1Q213 -2 194 -4T153
-7Q108 -7 90 9T71 64V423H223ZM71 233V608Q81 610 101 613T141 616Q184 616 203 601T223 545V233H71Z" />
<glyph unicode="L" horiz-adv-x="510" d="M223 420V7L152 -2Q115 -2 93 20T71 79V420H223ZM152 121H466Q473 112 478 96T483 62Q483 30 469 14T430 -2H152V121ZM71 232V608Q81 610 101 613T141 616Q184 616 203 601T223 545V232H71Z" />
<glyph unicode="M" horiz-adv-x="793" d="M472 151Q460 143 442 137T400 130Q369 130 349 138T321 165Q287 260 264 324T227 434H222Q219 371 217 318T214 216T210 116T205 3Q193 0 175 -3T139 -7Q101 -7 80 5T59 50Q59 72 61 115T66 215T74 335T82 459T90 573Q98
585 122 597T188 610Q233 610 260 596T299 549Q314 512 331 465T365 369T396 280H401Q430 369 459 453T510 594Q523 601 544 605T590 610Q633 610 659 598T691 560Q695 541 699 500T709 406T719 294T728 180T736 81T740 10Q725 1 709 -3T667 -7Q636 -7 613 4T588
49Q584 128 581 199T576 329T572 429H567Q554 386 531 321T472 151Z" />
<glyph unicode="N" horiz-adv-x="674" d="M209 436Q213 394 215 352T217 271T217 195V1Q209 -1 190 -4T150 -7Q107 -7 89 8T71 62V435L209 436ZM465 173Q458 247 458 313T457 439V608Q467 610 486 613T525 616Q568 616 585 601T603 547V175L465 173ZM603 318V19Q591
7 568 0T512 -7Q478 -7 449 3T401 52L279 283Q268 306 257 328T236 372T216 417L71 385V580Q84 597 109 606T163 615Q197 615 226 604T274 556L397 324Q409 303 419 281T440 236T459 190L603 223V318Z" />
<glyph unicode="O" horiz-adv-x="700" d="M660 304Q660 200 619 129T508 20T349 -17Q261 -17 191 20T80 128T40 304Q40 408 81 479T192 587T349 624Q437 624 507 588T618 480T660 304ZM504 304Q504 401 462 451T349 501Q280 501 238 451T196 304Q196 206 238 156T350
106Q420 106 462 156T504 304Z" />
<glyph unicode="P" horiz-adv-x="578" d="M282 315Q333 315 363 339T393 408Q393 454 365 477T283 500Q264 500 250 499T222 496V315H282ZM71 195V553Q71 573 82 583T112 601Q144 612 190 617T273 622Q408 622 477 565T547 408Q547 344 517 296T429 222T292 195H71ZM223
262V1Q213 -1 194 -4T153 -7Q108 -7 90 9T71 64V262H223Z" />
<glyph unicode="Q" horiz-adv-x="701" d="M489 35Q526 15 561 1T629 -25T693 -46Q694 -53 694 -57T694 -66Q694 -113 669 -135T603 -158Q560 -158 511 -132T406 -59L333 5L489 35ZM660 305Q660 201 619 130T508 22T349 -15Q261 -15 191 21T80 129T40 305Q40 409
81 480T192 587T349 624Q437 624 507 588T618 480T660 305ZM504 305Q504 401 462 451T349 501Q280 501 238 452T196 305Q196 207 238 158T350 108Q420 108 462 157T504 305Z" />
<glyph unicode="R" horiz-adv-x="604" d="M287 321Q337 321 368 344T399 411Q399 455 370 477T280 500Q263 500 249 499T221 495V321H287ZM71 205V553Q71 573 82 583T112 601Q144 612 188 617T281 622Q416 622 484 566T552 412Q552 352 520 305T431 232T301 205H71ZM408
272Q431 241 456 210T503 149T544 96T573 54Q564 24 541 8T489 -9Q453 -9 434 7T396 51L274 240L408 272ZM223 261V1Q213 -1 194 -4T153 -7Q108 -7 90 9T71 64V261H223Z" />
<glyph unicode="S" horiz-adv-x="544" d="M253 107Q306 107 329 126T353 173Q353 198 335 213T280 241L227 258Q173 276 132 298T68 354T45 443Q45 526 108 575T283 624Q340 624 384 613T454 581T480 528Q480 506 469 489T443 461Q420 476 382 488T298 500Q250
500 226 484T201 443Q201 423 217 411T266 388L321 370Q412 342 461 296T510 172Q510 88 445 36T257 -17Q196 -17 148 -4T72 34T44 92Q44 118 59 136T93 164Q120 142 160 125T253 107Z" />
<glyph unicode="T" horiz-adv-x="548" d="M203 607H511Q517 597 522 582T527 548Q527 516 513 500T473 484H204L203 607ZM344 484H36Q30 494 25 509T20 544Q20 576 34 591T73 607H343L344 484ZM347 511V1Q338 -1 318 -4T277 -7Q233 -7 215 9T196 64V511H347Z" />
<glyph unicode="U" horiz-adv-x="660" d="M330 -17Q248 -17 190 12T100 95T69 219V285H220V223Q220 168 251 137T330 106Q378 106 409 137T440 223V285H592V219Q592 148 561 95T471 13T330 -17ZM69 255V608Q79 610 99 613T139 616Q182 616 201 601T220 545V255H69ZM440
253V608Q450 610 470 613T510 616Q553 616 572 601T592 545V253H440Z" />
<glyph unicode="V" horiz-adv-x="621" d="M408 17Q396 7 371 -1T314 -9Q279 -9 253 2T216 32Q202 61 182 108T140 215T95 338T53 464T21 577Q33 590 55 600T105 610Q137 610 157 596T187 547Q218 441 249 343T315 141H320Q341 206 362 281T406 436T446 593Q461
601 479 605T518 610Q551 610 573 596T595 548Q595 529 585 487T558 391T519 279T477 168T438 75T408 17Z" />
<glyph unicode="W" horiz-adv-x="848" d="M349 458Q359 463 379 468T421 474Q458 474 482 463T512 431Q530 371 544 322T571 227T597 131H602Q616 215 627 290T648 440T668 594Q700 611 735 611Q768 611 791 597T814 550Q814 529 809 490T796 399T778 293T756
185T732 90T709 21Q695 10 666 2T606 -7Q566 -7 538 4T502 36Q493 65 481 104T455 190T428 286Q416 238 403 188T378 95T356 21Q343 10 317 2T259 -7Q221 -7 190 5T148 36Q138 59 125 105T98 212T70 339T45 467T29 580Q41 592 62 601T110 611Q143 611 163 597T190
548Q206 456 216 390T234 277T248 195T261 131H266Q276 172 285 208T304 280T325 359T349 458Z" />
<glyph unicode="X" horiz-adv-x="599" d="M220 276L30 543Q38 568 61 590T123 613Q148 613 168 600T207 556L336 362L375 337L571 62Q565 30 542 11T480 -8Q455 -8 437 5T398 49L252 270L220 276ZM322 243L154 -6Q148 -7 141 -7T127 -8Q80 -8 57 12T33 61Q33 86
44 105T75 149L220 336L286 388L434 604Q441 607 453 609T477 611Q516 611 538 592T560 545Q560 522 548 503T515 457Q478 410 442 364T366 270L322 243Z" />
<glyph unicode="Y" horiz-adv-x="568" d="M226 196Q200 234 169 282T108 381T52 480T9 566Q20 583 39 596T88 610Q122 610 143 596T184 543Q187 538 198 517T223 469T251 414T276 366T290 341H295Q318 387 336 426T372 506T411 594Q426 602 444 606T480 610Q511
610 531 594T552 546Q552 535 543 512T513 448T454 346T361 196H226ZM367 250V1Q358 -1 339 -4T299 -7Q254 -7 237 8T219 63V250H367Z" />
<glyph unicode="Z" horiz-adv-x="559" d="M435 609H480Q518 578 518 527Q518 505 508 484T482 443L126 0H72Q57 12 48 32T38 79Q38 102 49 124T76 166L435 609ZM162 125H508Q514 114 519 99T525 64Q525 31 511 16T471 0H92L162 125ZM396 484H63Q57 495 52 510T47
544Q47 577 61 593T102 609H451L396 484Z" />
<glyph unicode="[" horiz-adv-x="294" d="M52 564H189V-40H52V564ZM274 -15Q280 -24 284 -38T288 -69Q288 -98 275 -112T238 -126H119Q84 -126 68 -106T52 -58V-15H274ZM274 656Q280 647 284 633T288 603Q288 574 275 560T238 546H52V589Q52 617 68 636T119 656H274Z" />
<glyph unicode="\" horiz-adv-x="355" d="M335 -26Q322 -39 301 -49T259 -59Q235 -59 218 -49T194 -12L16 637Q28 650 50 659T92 669Q115 669 132 659T157 622L335 -26Z" />
<glyph unicode="]" horiz-adv-x="305" d="M243 -33H106V575H243V-33ZM21 546Q15 555 11 569T6 599Q6 630 20 643T57 656H175Q210 656 226 637T243 589V546H21ZM21 -126Q15 -117 11 -103T6 -72Q6 -42 20 -29T57 -15H243V-58Q243 -86 227 -106T175 -126H21Z" />
<glyph unicode="^" horiz-adv-x="482" d="M163 643Q174 652 194 657T240 663Q301 663 319 631Q331 613 348 578T384 501T417 417T442 343Q432 332 414 323T374 314Q347 314 332 325T304 368L238 539H233Q226 520 217 495T198 441T179 383T164 328Q151 321 134
317T102 313Q76 313 58 325T40 365Q40 379 49 405T72 465T103 533T136 596T163 643Z" />
<glyph unicode="_" horiz-adv-x="498" d="M14 -172Q9 -162 5 -148T0 -116Q0 -84 15 -70T55 -55H484Q489 -64 493 -80T498 -113Q498 -145 483 -158T444 -172H14Z" />
<glyph unicode="`" horiz-adv-x="302" d="M28 643Q27 647 27 653T26 664Q26 695 44 713T91 731Q108 731 124 724T155 699L244 588Q241 557 223 542T183 527Q164 527 152 533T125 551L28 643Z" />
<glyph unicode="a" horiz-adv-x="533" d="M255 94Q278 94 300 99T333 110V206L248 199Q214 196 195 184T175 148Q175 123 194 109T255 94ZM249 495Q352 495 414 452T476 317V90Q476 65 463 50T431 23Q401 5 357 -5T255 -15Q153 -15 93 24T32 143Q32 211 74 247T199
292L333 306V318Q333 353 306 368T231 383Q193 383 156 374T90 352Q78 361 70 377T62 411Q62 453 107 472Q136 483 174 489T249 495Z" />
<glyph unicode="b" horiz-adv-x="580" d="M312 495Q377 495 430 467T513 382T544 242Q544 158 512 101T421 15T283 -15Q221 -15 177 0T102 35Q81 50 71 68T60 110V427H207V121Q219 114 237 108T281 102Q332 102 362 137T393 242Q393 313 364 345T285 378Q252 378
227 366T185 339L181 458Q204 472 237 483T312 495ZM60 392V651Q69 654 87 657T126 660Q169 660 188 646T207 591V392H60Z" />
<glyph unicode="c" horiz-adv-x="486" d="M317 377Q262 377 224 342T185 238Q185 171 222 137T316 103Q349 103 373 111T416 129Q433 117 442 103T451 68Q451 31 411 9T300 -14Q221 -14 161 14T69 99T36 238Q36 325 71 381T166 466T296 495Q365 495 404 470T444
408Q444 390 436 376T416 351Q397 361 373 369T317 377Z" />
<glyph unicode="d" horiz-adv-x="576" d="M370 420H517V99Q517 76 507 60T475 30Q448 12 405 -1T304 -15Q221 -15 161 13T69 97T36 238Q36 326 69 382T159 467T285 495Q321 495 349 487T395 468V346Q381 358 358 368T305 378Q269 378 242 364T200 318T185 238Q185
168 216 135T303 102Q326 102 342 107T370 118V420ZM369 391V651Q379 654 397 657T435 660Q478 660 497 646T517 591V391H369Z" />
<glyph unicode="e" horiz-adv-x="542" d="M121 270L370 309Q367 338 345 361T280 385Q234 385 204 355T173 267L177 199Q187 144 225 121T315 97Q357 97 394 108T454 134Q468 125 478 109T488 75Q488 45 465 25T400 -5T305 -15Q228 -15 167 14T71 101T36 246Q36
310 56 357T110 434T188 480T279 495Q348 495 399 468T480 393T509 284Q509 253 492 238T445 217L127 170L121 270Z" />
<glyph unicode="f" horiz-adv-x="422" d="M178 445H373Q378 437 383 422T388 389Q388 359 375 345T337 331H178V445ZM200 349H60V490Q60 556 88 597T164 657T271 677Q341 677 375 659T410 599Q410 582 403 568T385 545Q367 551 345 555T296 560Q248 560 224 543T200
485V349ZM207 379V1Q198 -1 180 -4T141 -7Q99 -7 80 8T60 62V379H207Z" />
<glyph unicode="g" horiz-adv-x="558" d="M257 19Q197 19 147 41T66 116T35 254Q35 333 66 386T155 467T287 495Q341 495 387 481T459 449Q478 437 489 421T500 379V66H358V362Q346 369 331 373T292 378Q243 378 213 348T182 254Q182 184 211 157T283 130Q316
130 338 142T376 168L381 50Q360 37 330 28T257 19ZM360 98H500V0Q500 -69 468 -113T380 -178T255 -199Q203 -199 163 -190T101 -167Q67 -145 67 -105Q67 -84 75 -68T96 -43Q123 -59 160 -70T238 -82Q294 -82 327 -62T360 5V98Z" />
<glyph unicode="h" horiz-adv-x="577" d="M371 204V293Q371 339 347 358T287 378Q255 378 230 366T185 339L182 458Q205 472 239 483T314 495Q408 495 463 447T518 301V204H371ZM207 264V1Q198 -1 180 -4T141 -7Q99 -7 80 8T60 62V264H207ZM518 264V1Q509 -1 491
-4T452 -7Q410 -7 391 8T371 62V264H518ZM60 188V651Q69 654 87 657T126 660Q169 660 188 646T207 591V188H60Z" />
<glyph unicode="i" horiz-adv-x="272" d="M53 618Q53 652 76 675T136 698Q172 698 195 675T218 618Q218 585 195 562T136 538Q100 538 77 561T53 618ZM210 264V1Q200 -1 182 -4T143 -7Q101 -7 82 8T62 62V264H210ZM62 188V474Q72 477 90 480T129 483Q171 483 190
469T210 414V188H62Z" />
<glyph unicode="j" horiz-adv-x="276" d="M-4 -113Q20 -101 35 -87T59 -53T67 -2V250H214V-18Q214 -81 195 -120T144 -177T79 -195Q41 -195 20 -172T-4 -113ZM54 618Q54 652 77 675T137 698Q173 698 196 675T219 618Q219 585 196 562T137 538Q100 538 77 561T54
618ZM67 188V474Q76 477 94 480T133 483Q176 483 195 469T214 414V185L67 188Z" />
<glyph unicode="k" horiz-adv-x="538" d="M165 260L391 488Q436 487 463 468T490 417Q490 391 472 371T417 319L271 192L165 260ZM288 291L509 77Q506 37 486 15T429 -8Q402 -8 380 5T332 50L171 239L288 291ZM207 262V1Q198 -1 180 -4T141 -7Q99 -7 80 8T60 62V265L207
262ZM60 189V651Q69 654 87 657T126 660Q169 660 188 646T207 591V186L60 189Z" />
<glyph unicode="l" horiz-adv-x="275" d="M211 261V1Q202 -1 184 -4T145 -7Q103 -7 84 8T64 62V264L211 261ZM64 188V651Q73 654 91 657T130 660Q173 660 192 646T211 591V185L64 188Z" />
<glyph unicode="m" horiz-adv-x="839" d="M493 217H346V312Q346 347 326 362T275 378Q253 378 235 372T205 358V217H58V373Q58 398 68 414T100 444Q132 467 180 481T280 495Q328 495 370 480T443 434Q451 428 458 422T469 407Q479 391 486 371T493 331V217ZM781
217H633V312Q633 347 614 362T564 378Q541 378 520 369T485 346L407 432Q440 457 482 476T585 495Q637 495 681 477T753 420T781 317V217ZM205 263V1Q196 -1 178 -4T139 -7Q97 -7 78 8T58 62V263H205ZM493 263V1Q484 -1 466 -4T427 -7Q385 -7 366 8T346 62V263H493ZM781
263V1Q771 -1 753 -4T715 -7Q672 -7 653 8T633 62V263H781Z" />
<glyph unicode="n" horiz-adv-x="575" d="M516 217H369V306Q369 344 347 361T290 378Q265 378 244 372T205 357V217H58V373Q58 398 68 414T100 444Q132 466 181 480T291 495Q399 495 457 448T516 311V217ZM205 263V1Q196 -1 178 -4T139 -7Q97 -7 78 8T58 62V263H205ZM516
263V1Q507 -1 489 -4T450 -7Q408 -7 389 8T369 62V263H516Z" />
<glyph unicode="o" horiz-adv-x="578" d="M542 240Q542 162 511 105T423 16T289 -15Q212 -15 155 15T67 103T36 240Q36 318 67 375T156 463T289 495Q365 495 422 464T510 375T542 240ZM289 378Q242 378 215 342T187 240Q187 173 214 137T289 101Q338 101 364 137T391
240Q391 305 364 341T289 378Z" />
<glyph unicode="p" horiz-adv-x="575" d="M295 -14Q366 -14 421 15T508 101T540 243Q540 331 507 386T414 468T278 495Q221 495 175 483T99 451Q79 438 69 422T58 380V53H205V360Q218 367 236 372T278 378Q312 378 337 364T375 321T389 243Q389 173 359 138T273
103Q241 103 217 114T175 141V16Q198 4 228 -5T295 -14ZM58 91V-118Q58 -157 77 -172T139 -187Q160 -187 178 -184T205 -178V91H58Z" />
<glyph unicode="q" horiz-adv-x="577" d="M371 73V362Q361 369 345 373T306 378Q270 378 243 363T200 317T185 238Q185 168 216 135T302 102Q330 102 351 110T386 131V9Q368 -2 341 -8T280 -15Q209 -15 154 13T68 97T36 238Q36 323 69 380T163 466T303 495Q357
495 404 482T477 451Q496 439 507 422T518 381V73H371ZM518 92V-181Q508 -184 490 -187T451 -190Q409 -190 390 -175T370 -121V92H518Z" />
<glyph unicode="r" horiz-adv-x="404" d="M205 226H58V369Q58 397 71 416T109 451Q142 471 188 482T286 494Q388 494 388 426Q388 410 384 397T372 373Q362 375 348 376T317 377Q286 377 257 371T205 351V226ZM205 261V1Q196 -1 178 -4T139 -7Q97 -7 78 8T58 62V264L205
261Z" />
<glyph unicode="s" horiz-adv-x="481" d="M447 140Q447 67 392 26T232 -16Q150 -16 97 8T44 79Q44 100 53 115T76 140Q104 123 141 110T227 97Q301 97 301 139Q301 157 288 167T245 184L201 194Q122 210 83 245T43 343Q43 413 99 454T252 495Q300 495 339 486T401
457T424 409Q424 390 416 375T396 350Q384 357 362 364T314 377T264 383Q228 383 208 373T187 343Q187 330 198 321T240 304L280 295Q369 274 408 237T447 140Z" />
<glyph unicode="t" horiz-adv-x="391" d="M206 264V157Q206 128 224 116T274 103Q290 103 307 106T337 114Q345 105 351 93T357 63Q357 29 330 8T236 -14Q153 -14 107 23T60 147V264H206ZM152 469H345Q350 461 355 446T360 413Q360 383 347 369T310 355H152V469ZM60
239V598Q69 601 87 604T125 608Q167 608 186 593T206 539V239H60Z" />
<glyph unicode="u" horiz-adv-x="574" d="M58 259H205V188Q205 142 229 122T296 101Q323 101 341 106T369 117V259H516V99Q516 75 507 58T477 28Q445 8 399 -3T295 -15Q224 -15 171 6T88 71T58 187V259ZM369 214V478Q378 481 396 484T435 487Q478 487 497 473T516
417V214H369ZM58 214V478Q67 481 85 484T124 487Q167 487 186 473T205 417V214H58Z" />
<glyph unicode="v" horiz-adv-x="533" d="M434 490Q464 490 485 477T506 431Q506 413 496 375T469 288T432 186T392 88T356 12Q345 4 322 -2T269 -9Q235 -9 211 0T177 28Q166 49 150 87T116 173T80 274T47 374T23 458Q35 471 55 480T100 490Q131 490 150 477T180
428L224 269Q232 241 240 213T256 161T268 120H273Q297 201 321 293T365 474Q396 490 434 490Z" />
<glyph unicode="w" horiz-adv-x="776" d="M392 291Q380 241 364 188T334 88T310 14Q298 4 278 -2T228 -9Q194 -9 168 1T132 30Q123 50 112 87T88 171T65 271T44 371T27 459Q39 471 59 480T105 490Q136 490 155 476T179 427Q189 360 197 309T211 222T222 163T230
128H234Q239 150 251 198T281 307T315 432Q332 442 350 447T392 452Q423 452 444 442T472 412Q490 351 506 294T534 193T550 127H555Q569 207 584 295T610 472Q640 490 677 490Q707 490 727 477T747 431Q747 417 742 386T727 314T707 228T685 141T663 66T645 14Q634
4 609 -2T556 -9Q482 -9 469 27Q460 54 446 97T417 191T392 291Z" />
<glyph unicode="x" horiz-adv-x="513" d="M239 300Q275 348 309 393T378 486Q383 487 386 487T393 487Q434 487 457 470T481 424Q481 402 471 385T433 336Q406 305 378 274T323 211L279 189Q244 140 210 91T140 -7Q137 -7 131 -7T121 -8Q78 -8 55 10T31 56Q31
76 40 92T75 136Q108 176 143 216T212 298L239 300ZM332 268Q371 216 410 165T489 62Q485 29 464 10T411 -10Q379 -9 359 9T320 54Q294 90 268 127T217 200L192 217Q151 267 111 315T29 412Q36 446 57 466T107 487Q136 487 152 473T187 434Q214 398 242 361T298
286L332 268Z" />
<glyph unicode="y" horiz-adv-x="536" d="M138 119Q123 152 104 199T65 310T23 458Q35 471 55 480T100 490Q131 490 151 477T181 428Q203 355 226 283T274 137H278Q295 182 312 239T345 357T371 474Q385 481 401 485T434 490Q465 490 487 477T509 431Q509 403
501 362T479 274T446 177T406 81T364 -2Q310 -96 265 -142T175 -189Q139 -189 116 -168T88 -112Q109 -93 132 -70T176 -20T214 33Q197 38 179 55T138 119Z" />
<glyph unicode="z" horiz-adv-x="478" d="M67 0Q53 12 45 28T37 66Q37 84 45 101T66 134L356 479H408Q422 467 430 451T438 413Q438 396 430 379T409 346L125 0H67ZM378 365H56Q51 374 46 389T41 422Q41 452 55 465T92 479H378V365ZM108 115H434Q439 106 444 91T449
58Q449 28 436 14T399 0H108V115Z" />
<glyph unicode="{" horiz-adv-x="323" d="M180 268Q208 254 223 225T238 151V35Q238 1 253 -13T293 -33Q295 -40 295 -46T295 -59Q295 -96 275 -113T221 -130Q169 -130 136 -96T102 6V115Q102 161 86 185T34 218Q31 228 29 241T27 268Q27 282 29 295T34 319Q69
327 85 352T102 422V527Q102 595 137 628T223 662Q258 662 276 646T295 591Q295 585 295 579T293 565Q269 561 254 547T238 497V386Q238 341 223 312T180 268Z" />
<glyph unicode="|" horiz-adv-x="274" d="M203 -172Q193 -174 177 -176T144 -179Q109 -179 90 -167T71 -116V676Q81 678 97 680T130 683Q165 683 184 671T203 619V-172Z" />
<glyph unicode="}" horiz-adv-x="323" d="M143 268Q115 254 100 225T85 151V35Q85 1 70 -13T30 -33Q28 -40 28 -46T28 -59Q28 -96 48 -113T102 -130Q154 -130 187 -96T221 6V115Q221 161 237 185T289 218Q292 228 294 241T296 268Q296 282 294 295T289 319Q254
327 238 352T221 422V527Q221 595 186 628T100 662Q65 662 47 646T28 591Q28 585 28 579T30 565Q54 561 69 547T85 497V386Q85 341 100 312T143 268Z" />
<glyph unicode="~" horiz-adv-x="489" d="M322 305Q347 305 360 318T381 347Q418 347 444 325T471 266Q471 219 438 196T357 172Q324 172 292 180T230 198T168 207Q143 207 130 193T109 166Q73 166 47 188T20 247Q20 279 37 300T80 331T133 341Q169 341 201 332T263
314T322 305Z" />
<glyph unicode="&#xa0;" horiz-adv-x="200" />
<glyph unicode="&#xa1;" horiz-adv-x="286" d="M67 -97Q67 -72 68 -31T72 61T78 159T88 247Q96 253 113 257T144 261Q168 261 185 252T207 221Q210 197 213 152T219 53T223 -53T225 -144Q187 -166 142 -166Q106 -166 87 -149T67 -97ZM230 399Q230 362 207 338T144
314Q104 314 81 338T58 399Q58 435 81 459T144 483Q183 483 206 459T230 399Z" />
<glyph unicode="&#xa2;" horiz-adv-x="488" d="M329 59V-91Q320 -94 305 -96T270 -99Q233 -99 216 -86T198 -37V59H329ZM198 403V573Q207 576 222 578T256 581Q294 581 311 568T329 519V403H198ZM315 377Q261 377 223 342T184 238Q184 171 221 137T315 103Q348
103 372 111T414 129Q431 117 440 103T449 68Q449 31 409 9T299 -14Q219 -14 160 14T67 99T34 238Q34 325 70 381T165 466T295 495Q363 495 403 470T443 408Q443 390 435 376T414 351Q396 361 372 369T315 377Z" />
<glyph unicode="&#xa3;" horiz-adv-x="504" d="M93 246Q71 246 57 259T43 305Q43 322 48 336T58 360H402Q407 351 412 337T417 305Q417 273 404 260T367 246H93ZM123 227Q123 250 120 283T112 352T108 413Q108 487 138 533T220 602T332 624Q399 624 433 602T468
541Q468 524 460 507T441 482Q422 493 403 499T354 505Q306 505 280 482T254 406Q254 380 257 346T264 279T267 225Q267 192 258 165T230 116H469Q475 106 479 91T484 59Q484 28 470 14T433 0H100Q76 0 58 18T40 71Q40 80 41 86Q82 105 102 135T123 227Z" />
<glyph unicode="&#xa4;" horiz-adv-x="555" d="M219 425L172 484Q160 499 146 512T115 526Q98 526 83 515T56 479L141 377L219 425ZM357 293Q357 245 334 220T275 195Q238 195 215 220T192 293Q192 340 215 365T275 391Q311 391 334 366T357 293ZM410 361L456
421Q469 437 476 451T484 480Q484 502 465 514T420 531L339 425L410 361ZM482 293Q482 356 454 400T379 467T274 490Q218 490 171 467T96 400T68 293Q68 229 96 185T171 119T276 96Q333 96 379 118T454 185T482 293ZM334 155L380 97Q393 82 406 69T437 55Q455 55
470 66T496 102L411 204L334 155ZM145 220L99 160Q86 144 78 130T70 101Q70 80 89 68T135 50L216 155L145 220Z" />
<glyph unicode="&#xa5;" horiz-adv-x="584" d="M199 281Q169 328 137 380T78 481T34 570Q46 585 64 598T110 611Q143 611 163 598T203 547L298 368H304Q326 412 341 445T371 513T407 596Q422 603 440 607T476 611Q506 611 525 596T545 550Q545 540 538 522T515
474T474 400T410 294L199 281ZM372 177V1Q362 -1 343 -4T303 -7Q259 -7 241 8T223 63V177H372ZM284 355H525Q530 346 534 334T538 308Q538 283 526 272T496 261H267L284 355ZM334 261H70Q66 268 62 280T57 307Q57 333 69 344T98 355H320L334 261ZM70 114Q66 121
62 133T57 160Q57 186 69 197T98 208H525Q529 199 533 187T537 161Q537 136 525 125T496 114H70Z" />
<glyph unicode="&#xa6;" horiz-adv-x="293" d="M203 312Q193 310 177 308T144 305Q109 305 90 317T71 368V676Q81 678 97 680T130 683Q165 683 184 671T203 620V312ZM203 -172Q193 -174 177 -176T144 -179Q109 -179 90 -167T71 -116V192Q81 194 97 196T130 199Q165
199 184 187T203 136V-172Z" />
<glyph unicode="&#xa7;" horiz-adv-x="536" d="M483 89Q483 19 424 -21T250 -62Q194 -62 150 -52T80 -20T55 32Q55 54 64 69T87 94Q117 76 156 63T245 50Q294 50 315 61T337 91Q337 108 324 116T278 130L211 142Q132 155 93 190T53 288Q53 352 103 384T237 420L230
347Q211 341 201 326T191 292Q191 277 203 264T245 244L328 227Q404 212 443 181T483 89ZM483 279Q483 250 471 225T438 182T395 157L309 212Q326 227 335 240T345 272Q345 289 331 302T284 321L209 336Q162 345 128 362T75 408T57 478Q57 548 114 586T266 624Q317
624 358 615T424 586T449 539Q449 519 441 504T422 479Q409 487 385 494T332 507T278 512Q242 512 222 503T201 473Q201 458 213 451T252 438L317 428Q400 414 441 377T483 279Z" />
<glyph unicode="&#xa8;" horiz-adv-x="374" d="M161 624Q161 593 140 572T84 551Q52 551 31 572T10 624Q10 655 31 676T84 698Q119 698 140 677T161 624ZM365 624Q365 593 345 572T289 551Q257 551 236 572T214 624Q214 655 235 676T289 698Q324 698 344 677T365 624Z" />
<glyph unicode="&#xa9;" horiz-adv-x="713" d="M40 306Q40 393 79 463T190 575T355 617Q450 617 521 576T633 464T673 306Q673 219 633 150T522 39T355 -2Q261 -2 190 39T80 149T40 306ZM355 536Q287 536 238 506T163 425T136 306Q136 240 162 189T238 110T355
81Q424 81 473 109T548 189T575 306Q575 373 549 424T473 506T355 536ZM390 385Q359 385 337 366T314 310Q314 272 335 252T390 232Q411 232 425 237T450 249Q472 231 472 203Q472 183 445 166T372 148Q327 148 291 167T233 222T211 311Q211 365 235 400T297 452T373
470Q415 470 441 454T468 412Q468 399 462 388T447 369Q437 375 423 380T390 385Z" />
<glyph unicode="&#xaa;" horiz-adv-x="354" d="M167 365Q181 365 195 367T217 374V434L165 429Q142 428 129 421T116 398Q116 383 128 374T167 365ZM162 622Q229 622 270 595T312 506V357Q312 343 303 333T282 316Q241 292 167 292Q100 292 61 317T21 394Q21 440
48 463T132 493L216 502V506Q216 529 200 538T150 548Q126 548 102 542T58 527Q50 532 45 543T39 566Q39 582 46 591T69 607Q87 615 113 618T162 622Z" />
<glyph unicode="&#xab;" horiz-adv-x="548" d="M280 91Q280 66 263 46T212 25Q192 25 176 35T145 62L44 167Q39 176 35 190T31 219Q31 247 38 264T55 291L202 435Q235 426 252 408T269 369Q269 349 261 334T228 295L152 222L280 91ZM514 91Q514 66 498 46T446
25Q426 25 410 35T379 62L279 167Q273 176 269 190T265 219Q265 247 272 264T290 291L436 435Q470 426 487 408T504 369Q504 349 496 334T462 295L387 222L514 91Z" />
<glyph unicode="&#xac;" horiz-adv-x="532" d="M430 432Q461 432 478 415T496 366V182Q487 179 469 177T432 174Q396 174 378 187T359 241V318H50Q45 328 40 342T35 374Q35 404 49 418T87 432H430Z" />
<glyph unicode="&#xad;" horiz-adv-x="363" d="M52 197Q46 207 41 222T36 255Q36 287 51 301T91 316H311Q316 307 321 291T327 258Q327 226 312 212T272 197H52Z" />
<glyph unicode="&#xae;" horiz-adv-x="619" d="M42 373Q42 446 75 504T169 598T309 633Q388 633 448 598T542 505T577 373Q577 302 543 243T448 150T309 115Q230 115 170 149T76 243T42 373ZM124 373Q124 319 146 277T210 210T309 186Q366 186 407 210T471 276T493
373Q493 428 471 471T408 538T309 563Q252 563 211 539T147 471T124 373ZM287 340V263Q282 262 273 261T252 260Q237 260 228 265T219 290V476Q219 489 236 495Q250 499 267 501T302 503Q355 503 382 481T410 420Q410 395 397 378T365 353L417 284Q413 272 403
265T380 258Q364 258 355 265T336 286L301 340H287ZM307 390Q341 390 341 421Q341 436 332 443T304 450Q299 450 295 450T287 449V390H307Z" />
<glyph unicode="&#xaf;" horiz-adv-x="355" d="M33 566Q29 575 24 589T18 620Q18 652 31 665T67 678H323Q330 669 333 654T337 623Q337 591 324 579T289 566H33Z" />
<glyph unicode="&#xb0;" horiz-adv-x="361" d="M339 479Q339 433 318 401T262 351T181 334Q112 334 67 372T22 479Q22 524 43 556T100 605T181 622Q226 622 261 605T318 556T339 479ZM181 536Q160 536 144 522T128 479Q128 449 144 435T181 420Q202 420 217 434T233
479Q233 508 218 522T181 536Z" />
<glyph unicode="&#xb1;" horiz-adv-x="546" d="M68 315Q63 325 59 339T54 371Q54 403 69 417T109 432H477Q482 423 487 407T492 374Q492 342 477 329T437 315H68ZM68 0Q63 10 59 24T54 56Q54 88 69 102T109 117H477Q482 108 487 92T492 59Q492 27 477 14T437 0H68ZM341
181Q332 179 315 176T280 173Q245 173 227 185T208 237V562Q217 564 234 567T269 571Q304 571 322 558T341 507V181Z" />
<glyph unicode="&#xb2;" horiz-adv-x="279" d="M125 700Q183 700 216 673T249 596Q249 565 230 537T177 482L131 444H246Q249 438 252 429T255 409Q255 390 247 382T222 373H44Q35 380 29 391T22 416Q22 432 26 443T37 461L113 529Q142 553 151 567T160 594Q160
610 149 619T117 629Q96 629 80 622T53 607Q45 614 39 624T33 648Q33 673 58 686T125 700Z" />
<glyph unicode="&#xb3;" horiz-adv-x="283" d="M125 570Q143 570 152 577T161 598Q161 612 149 620T113 628Q93 628 76 623T46 610Q36 617 30 627T24 650Q24 675 52 688T126 701Q185 701 217 675T250 607Q250 585 238 567T206 540Q227 531 241 512T256 462Q256
416 220 391T126 365Q74 365 45 381T15 420Q15 434 22 445T40 461Q55 452 73 445T117 437Q141 437 154 446T168 470Q168 486 158 494T127 502H77Q73 508 71 516T68 536Q68 559 77 570H125Z" />
<glyph unicode="&#xb4;" horiz-adv-x="298" d="M180 736Q224 736 247 717T270 672Q270 652 261 638T230 606L136 525Q99 525 79 543T59 583Q59 594 63 604T80 627L180 736Z" />
<glyph unicode="&#xb5;" horiz-adv-x="575" d="M191 296L188 64Q195 14 200 -30T206 -123V-166Q195 -171 178 -175T140 -179Q98 -179 78 -164T58 -110V296H191ZM144 243L206 259V188Q206 142 230 122T296 101Q324 101 342 106T369 117V259H517V99Q517 75 508 58T477
28Q451 11 412 -2T317 -15Q252 -15 214 8T160 72T144 163V243ZM369 214V478Q379 481 397 484T436 487Q478 487 497 473T517 417V214H369ZM58 214V478Q68 481 86 484T125 487Q168 487 187 473T206 417V214H58Z" />
<glyph unicode="&#xb6;" horiz-adv-x="523" d="M383 613Q421 613 442 600T464 544V-69Q456 -71 437 -74T398 -77Q360 -77 339 -64T317 -8V489H248V239Q248 227 234 219T187 210Q146 210 107 231T42 294T16 404Q16 475 47 521T131 590T243 613H383Z" />
<glyph unicode="&#xb7;" horiz-adv-x="214" d="M21 266Q21 303 44 328T107 354Q147 354 170 329T193 266Q193 230 170 205T107 179Q68 179 45 204T21 266Z" />
<glyph unicode="&#xb8;" horiz-adv-x="195" d="M122 33Q158 12 172 -18T186 -84Q186 -134 155 -166T69 -199Q31 -199 9 -181T-14 -130Q-14 -114 -10 -102H2Q34 -102 48 -87T62 -49Q62 -37 58 -22T42 4L122 33Z" />
<glyph unicode="&#xb9;" horiz-adv-x="219" d="M87 599L41 583Q30 588 20 600T9 630Q9 646 17 656T39 671L112 699H127Q149 699 161 686T174 650V375Q168 373 157 371T134 369Q112 369 100 377T87 410V599Z" />
<glyph unicode="&#xba;" horiz-adv-x="392" d="M357 458Q357 378 312 335T194 292Q121 292 76 336T30 458Q30 535 75 578T194 622Q267 622 312 578T357 458ZM194 544Q164 544 147 522T130 458Q130 416 147 394T194 371Q223 371 240 393T257 458Q257 498 240 521T194 544Z" />
<glyph unicode="&#xbb;" horiz-adv-x="548" d="M268 369Q268 394 285 414T336 435Q356 435 372 425T403 397L504 293Q509 284 513 270T517 240Q517 212 510 196T493 169L346 25Q313 34 296 52T279 91Q279 111 287 126T320 165L396 238L268 369ZM34 369Q34 394
50 414T102 435Q122 435 138 425T169 397L269 293Q275 284 279 270T283 240Q283 212 276 196T258 169L112 25Q79 34 62 52T44 91Q44 111 52 126T86 165L161 238L34 369Z" />
<glyph unicode="&#xbc;" horiz-adv-x="623" d="M85 519L39 503Q28 508 18 520T7 550Q7 566 15 576T37 591L110 619H125Q147 619 159 606T172 570V295Q166 293 155 291T132 289Q110 289 98 297T85 330V519ZM563 135H607Q610 129 612 120T615 100Q615 81 606 73T585
64H351Q340 70 332 81T324 110Q324 122 327 132T337 151L457 316Q466 318 478 320T503 323Q525 323 544 313T563 278V135ZM482 179Q482 189 482 205T483 237L419 135H482V179ZM479 103H563V2Q557 0 547 -2T524 -4Q503 -4 491 4T479 36V103ZM448 615Q476 612 493
601T512 570Q512 556 506 543T488 513L133 -6Q105 -2 88 9T69 39Q69 53 75 66T93 96L448 615Z" />
<glyph unicode="&#xbd;" horiz-adv-x="632" d="M85 519L39 503Q28 508 18 520T7 550Q7 566 15 576T37 591L110 619H125Q147 619 159 606T172 570V295Q166 293 155 291T132 289Q110 289 98 297T85 330V519ZM480 329Q538 329 571 302T604 225Q604 194 585 166T532
111L486 73H601Q604 67 607 58T610 38Q610 19 602 11T577 2H399Q390 9 384 20T377 45Q377 61 381 72T392 90L468 158Q497 182 506 196T515 223Q515 239 504 248T472 258Q451 258 435 251T408 236Q400 243 394 253T388 277Q388 302 413 315T480 329ZM448 615Q476
612 493 601T512 570Q512 556 506 543T488 513L133 -6Q105 -2 88 9T69 39Q69 53 75 66T93 96L448 615Z" />
<glyph unicode="&#xbe;" horiz-adv-x="676" d="M125 493Q143 493 152 500T161 521Q161 535 149 543T113 551Q93 551 76 546T46 533Q36 540 30 550T24 573Q24 598 52 611T126 624Q185 624 217 598T250 530Q250 508 238 490T206 463Q227 454 241 435T256 385Q256
339 220 314T126 288Q74 288 45 304T15 343Q15 357 22 368T40 384Q55 375 73 368T117 360Q141 360 154 369T168 393Q168 409 158 417T127 425H77Q73 431 71 439T68 459Q68 482 77 493H125ZM616 135H660Q663 129 665 120T668 100Q668 81 659 73T638 64H404Q393 70
385 81T377 110Q377 122 380 132T390 151L510 316Q519 318 531 320T556 323Q578 323 597 313T616 278V135ZM535 179Q535 189 535 205T536 237L472 135H535V179ZM532 103H616V2Q610 0 600 -2T577 -4Q556 -4 544 4T532 36V103ZM501 615Q529 612 546 601T565 570Q565
556 559 543T541 513L186 -6Q158 -2 141 9T122 39Q122 53 128 66T146 96L501 615Z" />
<glyph unicode="&#xbf;" horiz-adv-x="488" d="M349 259Q364 249 376 229T389 182Q389 156 375 142T332 121L256 102Q220 92 202 75T184 27Q184 1 206 -20T281 -41Q321 -41 358 -31T419 -4Q433 -16 444 -33T455 -72Q455 -119 401 -142T262 -166Q187 -166 135 -142T55
-74T28 27Q28 113 83 164T249 238L349 259ZM377 398Q377 361 354 337T291 313Q251 313 228 337T204 398Q204 435 227 458T291 482Q330 482 353 459T377 398Z" />
<glyph unicode="&#xc0;" horiz-adv-x="618" d="M309 481Q299 449 286 410T258 328T230 243L212 154Q206 135 201 114T189 73T178 34T169 0Q157 -3 143 -6T110 -10Q69 -10 47 5T25 48Q25 61 28 74T37 104Q46 136 62 186T99 295T139 410T176 516T205 591Q220 600
250 607T310 615Q353 615 386 603T429 563Q449 510 471 441T516 295T560 148T598 19Q588 7 567 -1T518 -9Q476 -9 460 5T434 50L402 163L385 247Q372 292 359 334T335 414T315 481H309ZM205 253H439L459 135H146L205 253ZM158 746Q157 750 157 756T156 767Q156
798 174 816T219 834Q252 834 284 802L369 713Q366 683 348 668T308 653Q290 653 277 659T249 676L158 746Z" />
<glyph unicode="&#xc1;" horiz-adv-x="618" d="M309 481Q299 449 286 410T258 328T230 243L212 154Q206 135 201 114T189 73T178 34T169 0Q157 -3 143 -6T110 -10Q69 -10 47 5T25 48Q25 61 28 74T37 104Q46 136 62 186T99 295T139 410T176 516T205 591Q220 600
250 607T310 615Q353 615 386 603T429 563Q449 510 471 441T516 295T560 148T598 19Q588 7 567 -1T518 -9Q476 -9 460 5T434 50L402 163L385 247Q372 292 359 334T335 414T315 481H309ZM205 253H439L459 135H146L205 253ZM384 840Q421 839 441 821T462 777Q462
760 454 745T421 715L325 652Q290 653 272 668T254 705Q254 716 257 726T275 748L384 840Z" />
<glyph unicode="&#xc2;" horiz-adv-x="618" d="M318 738Q296 718 272 695T224 652Q197 652 179 667T160 707Q160 726 169 739T201 771L238 803Q285 839 319 839Q343 839 362 830T400 801L481 717Q481 686 465 670T421 654Q403 654 388 665T351 700L318 738ZM309
481Q299 449 286 410T258 328T230 243L212 154Q206 135 201 114T189 73T178 34T169 0Q157 -3 143 -6T110 -10Q69 -10 47 5T25 48Q25 61 28 74T37 104Q46 136 62 186T99 295T139 410T176 516T205 591Q220 600 250 607T310 615Q353 615 386 603T429 563Q449 510 471
441T516 295T560 148T598 19Q588 7 567 -1T518 -9Q476 -9 460 5T434 50L402 163L385 247Q372 292 359 334T335 414T315 481H309ZM205 253H439L459 135H146L205 253Z" />
<glyph unicode="&#xc3;" horiz-adv-x="618" d="M309 481Q299 449 286 410T258 328T230 243L212 154Q206 135 201 114T189 73T178 34T169 0Q157 -3 143 -6T110 -10Q69 -10 47 5T25 48Q25 61 28 74T37 104Q46 136 62 186T99 295T139 410T176 516T205 591Q220 600
250 607T310 615Q353 615 386 603T429 563Q449 510 471 441T516 295T560 148T598 19Q588 7 567 -1T518 -9Q476 -9 460 5T434 50L402 163L385 247Q372 292 359 334T335 414T315 481H309ZM205 253H439L459 135H146L205 253ZM231 829Q259 829 284 822T332 807T369
799Q390 799 401 811T417 835H422Q450 835 471 816T492 765Q492 725 466 705T400 684Q369 684 344 692T299 707T261 715Q240 715 230 703T213 679H210Q181 679 160 697T139 748Q139 776 152 794T187 820T231 829Z" />
<glyph unicode="&#xc4;" horiz-adv-x="618" d="M309 481Q299 449 286 410T258 328T230 243L212 154Q206 135 201 114T189 73T178 34T169 0Q157 -3 143 -6T110 -10Q69 -10 47 5T25 48Q25 61 28 74T37 104Q46 136 62 186T99 295T139 410T176 516T205 591Q220 600
250 607T310 615Q353 615 386 603T429 563Q449 510 471 441T516 295T560 148T598 19Q588 7 567 -1T518 -9Q476 -9 460 5T434 50L402 163L385 247Q372 292 359 334T335 414T315 481H309ZM205 253H439L459 135H146L205 253ZM286 746Q286 715 265 694T209 673Q177
673 156 694T135 746Q135 777 156 798T209 820Q244 820 265 799T286 746ZM490 746Q490 715 470 694T414 673Q382 673 361 694T339 746Q339 777 360 798T414 820Q449 820 469 799T490 746Z" />
<glyph unicode="&#xc5;" horiz-adv-x="618" d="M309 481Q299 449 286 410T258 328T230 243L212 154Q206 135 201 114T189 73T178 34T169 0Q157 -3 143 -6T110 -10Q69 -10 47 5T25 48Q25 61 28 74T37 104Q46 136 62 186T99 295T139 410T176 516T205 591Q220 600
250 607T310 615Q353 615 386 603T429 563Q449 510 471 441T516 295T560 148T598 19Q588 7 567 -1T518 -9Q476 -9 460 5T434 50L402 163L385 247Q372 292 359 334T335 414T315 481H309ZM205 253H439L459 135H146L205 253ZM190 752Q190 796 223 826T315 856Q376
856 410 826T445 752Q445 708 411 678T315 648Q257 648 224 678T190 752ZM281 751Q281 736 291 727T316 718Q332 718 342 727T353 752Q353 767 343 776T316 785Q301 785 291 776T281 751Z" />
<glyph unicode="&#xc6;" horiz-adv-x="867" d="M389 480L264 215L246 177L164 1Q152 -3 140 -6T108 -9Q69 -9 50 6T31 48Q31 61 34 74T46 105Q60 135 83 183T135 287T193 400T247 506T291 586Q303 596 327 604T383 612Q403 612 427 608T471 593T497 563L498 480H389ZM206
253H438L458 135H148L206 253ZM543 524V7Q533 4 515 1T475 -2Q438 -2 417 20T395 79V524H543ZM475 369H777Q783 359 788 344T793 311Q793 279 779 265T740 250H475V369ZM475 118H810Q816 109 821 94T826 59Q826 28 812 13T773 -2H475V118ZM439 568Q452 585 471
596T514 607H806Q812 597 817 582T822 549Q822 517 808 502T769 487H439V568Z" />
<glyph unicode="&#xc7;" horiz-adv-x="575" d="M539 524Q539 502 527 485T500 458Q475 475 444 488T369 501Q315 501 277 478T217 411T196 303Q196 206 244 156T376 106Q420 106 451 118T508 146Q523 135 532 118T542 77Q542 57 532 41T496 12Q477 2 443 -7T357
-17Q269 -17 197 17T83 123T40 303Q40 407 81 478T193 587T348 624Q407 624 450 611T516 575T539 524ZM370 33Q406 12 420 -18T434 -84Q434 -134 403 -166T317 -199Q279 -199 257 -181T234 -130Q234 -114 238 -102H250Q282 -102 296 -87T310 -49Q310 -37 306 -22T290
4L370 33Z" />
<glyph unicode="&#xc8;" horiz-adv-x="547" d="M222 423V7Q213 4 195 1T155 -2Q118 -2 96 20T74 79V423H222ZM74 183V526Q74 563 96 585T155 607Q176 607 194 604T222 598V183H74ZM155 369H457Q463 359 467 344T472 311Q472 279 458 265T420 250H155V369ZM155
118H490Q496 109 500 94T505 59Q505 28 491 13T453 -2H155V118ZM155 607H485Q491 597 496 582T501 549Q501 517 487 502T448 487H155V607ZM158 746Q157 750 157 756T156 767Q156 798 174 816T219 834Q252 834 284 802L369 713Q366 683 348 668T308 653Q290 653
277 659T249 676L158 746Z" />
<glyph unicode="&#xc9;" horiz-adv-x="547" d="M222 423V7Q213 4 195 1T155 -2Q118 -2 96 20T74 79V423H222ZM74 183V526Q74 563 96 585T155 607Q176 607 194 604T222 598V183H74ZM155 369H457Q463 359 467 344T472 311Q472 279 458 265T420 250H155V369ZM155
118H490Q496 109 500 94T505 59Q505 28 491 13T453 -2H155V118ZM155 607H485Q491 597 496 582T501 549Q501 517 487 502T448 487H155V607ZM374 840Q411 839 431 821T452 777Q452 760 444 745T411 715L315 652Q280 653 262 668T244 705Q244 716 247 726T265 748L374
840Z" />
<glyph unicode="&#xca;" horiz-adv-x="547" d="M222 423V7Q213 4 195 1T155 -2Q118 -2 96 20T74 79V423H222ZM74 183V526Q74 563 96 585T155 607Q176 607 194 604T222 598V183H74ZM155 369H457Q463 359 467 344T472 311Q472 279 458 265T420 250H155V369ZM155
118H490Q496 109 500 94T505 59Q505 28 491 13T453 -2H155V118ZM155 607H485Q491 597 496 582T501 549Q501 517 487 502T448 487H155V607ZM294 738Q272 718 248 695T201 652Q173 652 155 667T136 707Q136 726 145 739T178 771L214 803Q261 839 296 839Q319 839
338 830T377 801L458 717Q458 686 442 670T398 654Q380 654 365 665T328 700L294 738Z" />
<glyph unicode="&#xcb;" horiz-adv-x="547" d="M222 423V7Q213 4 195 1T155 -2Q118 -2 96 20T74 79V423H222ZM74 183V526Q74 563 96 585T155 607Q176 607 194 604T222 598V183H74ZM155 369H457Q463 359 467 344T472 311Q472 279 458 265T420 250H155V369ZM155
118H490Q496 109 500 94T505 59Q505 28 491 13T453 -2H155V118ZM155 607H485Q491 597 496 582T501 549Q501 517 487 502T448 487H155V607ZM265 743Q265 712 244 691T188 670Q156 670 135 691T114 743Q114 774 135 795T188 817Q223 817 244 796T265 743ZM469 743Q469
712 449 691T393 670Q361 670 340 691T318 743Q318 774 339 795T393 817Q428 817 448 796T469 743Z" />
<glyph unicode="&#xcc;" horiz-adv-x="294" d="M223 422V1Q213 -1 194 -4T153 -7Q108 -7 90 9T71 64V422H223ZM71 232V608Q82 610 102 613T142 616Q185 616 204 601T223 545V232H71ZM242 746Q241 750 241 756T240 767Q240 798 258 816T303 834Q336 834 368 802L453
713Q450 683 432 668T392 653Q374 653 361 659T333 676L242 746Z" />
<glyph unicode="&#xcd;" horiz-adv-x="294" d="M223 422V1Q213 -1 194 -4T153 -7Q108 -7 90 9T71 64V422H223ZM71 232V608Q82 610 102 613T142 616Q185 616 204 601T223 545V232H71ZM214 840Q251 839 271 821T292 777Q292 760 284 745T251 715L155 652Q120 653
102 668T84 705Q84 716 87 726T105 748L214 840Z" />
<glyph unicode="&#xce;" horiz-adv-x="294" d="M223 422V1Q213 -1 194 -4T153 -7Q108 -7 90 9T71 64V422H223ZM71 232V608Q82 610 102 613T142 616Q185 616 204 601T223 545V232H71ZM403 738Q381 718 357 695T310 652Q282 652 264 667T245 707Q245 726 254 739T287
771L323 803Q370 839 405 839Q428 839 447 830T486 801L567 717Q567 686 551 670T507 654Q489 654 474 665T437 700L403 738Z" />
<glyph unicode="&#xcf;" horiz-adv-x="294" d="M223 422V1Q213 -1 194 -4T153 -7Q108 -7 90 9T71 64V422H223ZM71 232V608Q82 610 102 613T142 616Q185 616 204 601T223 545V232H71ZM373 743Q373 712 352 691T296 670Q264 670 243 691T222 743Q222 774 243 795T296
817Q331 817 352 796T373 743ZM577 743Q577 712 557 691T501 670Q469 670 448 691T426 743Q426 774 447 795T501 817Q536 817 556 796T577 743Z" />
<glyph unicode="&#xd0;" horiz-adv-x="696" d="M185 246H327Q352 246 366 261T380 308Q380 326 375 341T364 365H185V246ZM210 365H70Q46 365 32 351T18 304Q18 285 22 271T34 246H210V365ZM500 304Q500 206 453 157T324 108Q307 108 288 109T255 114V494Q271
497 288 498T323 499Q375 499 415 478T477 413T500 304ZM656 306Q656 413 613 483T494 587T314 622Q276 622 230 618T144 601Q126 594 115 584T104 553V74Q104 27 156 8Q195 -6 243 -10T324 -15Q424 -15 498 20T614 127T656 306Z" />
<glyph unicode="&#xd1;" horiz-adv-x="674" d="M209 436Q213 394 215 352T217 271T217 195V1Q209 -1 190 -4T150 -7Q107 -7 89 8T71 62V435L209 436ZM465 173Q458 247 458 313T457 439V608Q467 610 486 613T525 616Q568 616 585 601T603 547V175L465 173ZM603
318V19Q591 7 568 0T512 -7Q478 -7 449 3T401 52L279 283Q268 306 257 328T236 372T216 417L71 385V580Q84 597 109 606T163 615Q197 615 226 604T274 556L397 324Q409 303 419 281T440 236T459 190L603 223V318ZM248 829Q276 829 301 822T349 807T386 799Q407
799 418 811T434 835H439Q467 835 488 816T509 765Q509 725 483 705T417 684Q386 684 361 692T316 707T278 715Q257 715 247 703T230 679H227Q198 679 177 697T156 748Q156 776 169 794T204 820T248 829Z" />
<glyph unicode="&#xd2;" horiz-adv-x="700" d="M660 304Q660 200 619 129T508 20T349 -17Q261 -17 191 20T80 128T40 304Q40 408 81 479T192 587T349 624Q437 624 507 588T618 480T660 304ZM504 304Q504 401 462 451T349 501Q280 501 238 451T196 304Q196 206
238 156T350 106Q420 106 462 156T504 304ZM201 746Q200 750 200 756T199 767Q199 798 217 816T262 834Q295 834 327 802L412 713Q409 683 391 668T351 653Q333 653 320 659T292 676L201 746Z" />
<glyph unicode="&#xd3;" horiz-adv-x="700" d="M660 304Q660 200 619 129T508 20T349 -17Q261 -17 191 20T80 128T40 304Q40 408 81 479T192 587T349 624Q437 624 507 588T618 480T660 304ZM504 304Q504 401 462 451T349 501Q280 501 238 451T196 304Q196 206
238 156T350 106Q420 106 462 156T504 304ZM429 840Q466 839 486 821T507 777Q507 760 499 745T466 715L370 652Q335 653 317 668T299 705Q299 716 302 726T320 748L429 840Z" />
<glyph unicode="&#xd4;" horiz-adv-x="700" d="M660 304Q660 200 619 129T508 20T349 -17Q261 -17 191 20T80 128T40 304Q40 408 81 479T192 587T349 624Q437 624 507 588T618 480T660 304ZM504 304Q504 401 462 451T349 501Q280 501 238 451T196 304Q196 206
238 156T350 106Q420 106 462 156T504 304ZM352 738Q330 718 306 695T259 652Q231 652 213 667T194 707Q194 726 203 739T236 771L272 803Q319 839 354 839Q377 839 396 830T435 801L516 717Q516 686 500 670T456 654Q438 654 423 665T386 700L352 738Z" />
<glyph unicode="&#xd5;" horiz-adv-x="700" d="M660 304Q660 200 619 129T508 20T349 -17Q261 -17 191 20T80 128T40 304Q40 408 81 479T192 587T349 624Q437 624 507 588T618 480T660 304ZM504 304Q504 401 462 451T349 501Q280 501 238 451T196 304Q196 206
238 156T350 106Q420 106 462 156T504 304ZM267 829Q295 829 320 822T368 807T405 799Q426 799 437 811T453 835H458Q486 835 507 816T528 765Q528 725 502 705T436 684Q405 684 380 692T335 707T297 715Q276 715 266 703T249 679H246Q217 679 196 697T175 748Q175
776 188 794T223 820T267 829Z" />
<glyph unicode="&#xd6;" horiz-adv-x="700" d="M660 304Q660 200 619 129T508 20T349 -17Q261 -17 191 20T80 128T40 304Q40 408 81 479T192 587T349 624Q437 624 507 588T618 480T660 304ZM504 304Q504 401 462 451T349 501Q280 501 238 451T196 304Q196 206
238 156T350 106Q420 106 462 156T504 304ZM322 743Q322 712 301 691T245 670Q213 670 192 691T171 743Q171 774 192 795T245 817Q280 817 301 796T322 743ZM526 743Q526 712 506 691T450 670Q418 670 397 691T375 743Q375 774 396 795T450 817Q485 817 505 796T526
743Z" />
<glyph unicode="&#xd7;" horiz-adv-x="502" d="M466 143Q458 113 438 95T388 77Q378 77 365 83T341 101L237 224L192 264L37 425Q44 451 65 473T112 495Q125 495 136 490T155 475L278 341L319 309L466 143ZM314 260L259 218L120 71Q87 76 64 97T40 143Q40 153
46 164T64 187L181 309L233 342L382 499Q408 490 429 470T450 423Q450 412 445 401T427 377L314 260Z" />
<glyph unicode="&#xd8;" horiz-adv-x="700" d="M107 -17Q76 -10 58 6T39 45Q39 61 47 75T77 108L110 140L191 70L107 -17ZM585 470L518 552L588 625Q618 618 636 601T655 563Q655 547 644 532T616 500L585 470ZM228 103L181 202L455 492L524 412L228 103ZM660
304Q660 200 619 129T508 20T349 -17Q262 -17 192 21T81 132T40 304Q40 408 81 479T192 587T349 624Q435 624 505 586T618 477T660 304ZM508 304Q508 400 464 450T349 501Q280 501 236 451T192 304Q192 207 236 157T350 106Q420 106 464 156T508 304Z" />
<glyph unicode="&#xd9;" horiz-adv-x="660" d="M330 -17Q248 -17 190 12T100 95T69 219V285H220V223Q220 168 251 137T330 106Q378 106 409 137T440 223V285H592V219Q592 148 561 95T471 13T330 -17ZM69 255V608Q79 610 99 613T139 616Q182 616 201 601T220 545V255H69ZM440
253V608Q450 610 470 613T510 616Q553 616 572 601T592 545V253H440ZM167 746Q166 750 166 756T165 767Q165 798 183 816T228 834Q261 834 293 802L378 713Q375 683 357 668T317 653Q299 653 286 659T258 676L167 746Z" />
<glyph unicode="&#xda;" horiz-adv-x="660" d="M330 -17Q248 -17 190 12T100 95T69 219V285H220V223Q220 168 251 137T330 106Q378 106 409 137T440 223V285H592V219Q592 148 561 95T471 13T330 -17ZM69 255V608Q79 610 99 613T139 616Q182 616 201 601T220 545V255H69ZM440
253V608Q450 610 470 613T510 616Q553 616 572 601T592 545V253H440ZM405 840Q442 839 462 821T483 777Q483 760 475 745T442 715L346 652Q311 653 293 668T275 705Q275 716 278 726T296 748L405 840Z" />
<glyph unicode="&#xdb;" horiz-adv-x="660" d="M330 -17Q248 -17 190 12T100 95T69 219V285H220V223Q220 168 251 137T330 106Q378 106 409 137T440 223V285H592V219Q592 148 561 95T471 13T330 -17ZM69 255V608Q79 610 99 613T139 616Q182 616 201 601T220 545V255H69ZM440
253V608Q450 610 470 613T510 616Q553 616 572 601T592 545V253H440ZM335 738Q313 718 289 695T242 652Q214 652 196 667T177 707Q177 726 186 739T219 771L255 803Q302 839 337 839Q360 839 379 830T418 801L499 717Q499 686 483 670T439 654Q421 654 406 665T369
700L335 738Z" />
<glyph unicode="&#xdc;" horiz-adv-x="660" d="M330 -17Q248 -17 190 12T100 95T69 219V285H220V223Q220 168 251 137T330 106Q378 106 409 137T440 223V285H592V219Q592 148 561 95T471 13T330 -17ZM69 255V608Q79 610 99 613T139 616Q182 616 201 601T220 545V255H69ZM440
253V608Q450 610 470 613T510 616Q553 616 572 601T592 545V253H440ZM301 743Q301 712 280 691T224 670Q192 670 171 691T150 743Q150 774 171 795T224 817Q259 817 280 796T301 743ZM505 743Q505 712 485 691T429 670Q397 670 376 691T354 743Q354 774 375 795T429
817Q464 817 484 796T505 743Z" />
<glyph unicode="&#xdd;" horiz-adv-x="568" d="M226 196Q200 234 169 282T108 381T52 480T9 566Q20 583 39 596T88 610Q122 610 143 596T184 543Q187 538 198 517T223 469T251 414T276 366T290 341H295Q318 387 336 426T372 506T411 594Q426 602 444 606T480 610Q511
610 531 594T552 546Q552 535 543 512T513 448T454 346T361 196H226ZM367 250V1Q358 -1 339 -4T299 -7Q254 -7 237 8T219 63V250H367ZM350 840Q387 839 407 821T428 777Q428 760 420 745T387 715L291 652Q256 653 238 668T220 705Q220 716 223 726T241 748L350
840Z" />
<glyph unicode="&#xde;" horiz-adv-x="577" d="M218 397H285Q335 397 363 375T391 307Q391 261 363 239T285 217H218V397ZM67 97H304Q425 97 485 154T545 307Q545 402 485 459T304 517H67V97ZM67 167V64Q67 25 86 9T149 -7Q170 -7 190 -4T219 1V167H67ZM219 420V545Q219
586 200 601T137 616Q118 616 98 613T67 608V420H219Z" />
<glyph unicode="&#xdf;" horiz-adv-x="612" d="M61 284V459Q61 533 92 581T176 653T294 677Q363 677 416 651T499 576T529 459Q529 415 494 398L457 380Q441 372 433 363T425 340Q425 328 433 319T459 300Q500 279 526 257T566 207T579 141Q579 64 528 24T397
-17Q338 -17 303 2T267 56Q267 76 275 91T298 115Q313 106 331 99T372 92Q398 92 413 105T429 140Q429 160 417 173T378 201Q326 229 300 260T274 342Q274 382 298 411T365 458L382 465Q382 504 358 530T295 556Q258 556 233 532T208 459V284H61ZM208 317V0Q199
-2 181 -5T142 -8Q100 -8 81 7T61 61V317H208Z" />
<glyph unicode="&#xe0;" horiz-adv-x="533" d="M255 94Q278 94 300 99T333 110V206L248 199Q214 196 195 184T175 148Q175 123 194 109T255 94ZM249 495Q352 495 414 452T476 317V90Q476 65 463 50T431 23Q401 5 357 -5T255 -15Q153 -15 93 24T32 143Q32 211 74
247T199 292L333 306V318Q333 353 306 368T231 383Q193 383 156 374T90 352Q78 361 70 377T62 411Q62 453 107 472Q136 483 174 489T249 495ZM114 643Q113 647 113 653T112 664Q112 695 130 713T177 731Q194 731 210 724T241 699L330 588Q327 557 309 542T269 527Q250
527 238 533T211 551L114 643Z" />
<glyph unicode="&#xe1;" horiz-adv-x="533" d="M255 94Q278 94 300 99T333 110V206L248 199Q214 196 195 184T175 148Q175 123 194 109T255 94ZM249 495Q352 495 414 452T476 317V90Q476 65 463 50T431 23Q401 5 357 -5T255 -15Q153 -15 93 24T32 143Q32 211 74
247T199 292L333 306V318Q333 353 306 368T231 383Q193 383 156 374T90 352Q78 361 70 377T62 411Q62 453 107 472Q136 483 174 489T249 495ZM319 736Q363 736 386 717T409 672Q409 652 400 638T369 606L275 525Q238 525 218 543T198 583Q198 594 202 604T219 627L319
736Z" />
<glyph unicode="&#xe2;" horiz-adv-x="533" d="M255 94Q278 94 300 99T333 110V206L248 199Q214 196 195 184T175 148Q175 123 194 109T255 94ZM249 495Q352 495 414 452T476 317V90Q476 65 463 50T431 23Q401 5 357 -5T255 -15Q153 -15 93 24T32 143Q32 211 74
247T199 292L333 306V318Q333 353 306 368T231 383Q193 383 156 374T90 352Q78 361 70 377T62 411Q62 453 107 472Q136 483 174 489T249 495ZM263 624Q238 595 220 576T181 531Q147 531 127 547T106 587Q106 605 116 618T145 650L186 692Q203 709 222 719T266 729Q289
729 308 720T352 682L426 591Q426 567 412 550T368 533Q351 533 338 542T310 568L263 624Z" />
<glyph unicode="&#xe3;" horiz-adv-x="533" d="M255 94Q278 94 300 99T333 110V206L248 199Q214 196 195 184T175 148Q175 123 194 109T255 94ZM249 495Q352 495 414 452T476 317V90Q476 65 463 50T431 23Q401 5 357 -5T255 -15Q153 -15 93 24T32 143Q32 211 74
247T199 292L333 306V318Q333 353 306 368T231 383Q193 383 156 374T90 352Q78 361 70 377T62 411Q62 453 107 472Q136 483 174 489T249 495ZM179 699Q207 699 232 692T280 677T317 669Q338 669 349 681T365 705H370Q398 705 419 686T440 635Q440 595 414 575T348
554Q317 554 292 562T247 577T209 585Q188 585 178 573T161 549H158Q129 549 108 567T87 618Q87 646 100 664T135 690T179 699Z" />
<glyph unicode="&#xe4;" horiz-adv-x="533" d="M255 94Q278 94 300 99T333 110V206L248 199Q214 196 195 184T175 148Q175 123 194 109T255 94ZM249 495Q352 495 414 452T476 317V90Q476 65 463 50T431 23Q401 5 357 -5T255 -15Q153 -15 93 24T32 143Q32 211 74
247T199 292L333 306V318Q333 353 306 368T231 383Q193 383 156 374T90 352Q78 361 70 377T62 411Q62 453 107 472Q136 483 174 489T249 495ZM242 879Q242 848 221 827T165 806Q133 806 112 827T91 879Q91 910 112 931T165 953Q200 953 221 932T242 879ZM446 879Q446
848 426 827T370 806Q338 806 317 827T295 879Q295 910 316 931T370 953Q405 953 425 932T446 879Z" />
<glyph unicode="&#xe5;" horiz-adv-x="533" d="M255 94Q278 94 300 99T333 110V206L248 199Q214 196 195 184T175 148Q175 123 194 109T255 94ZM249 495Q352 495 414 452T476 317V90Q476 65 463 50T431 23Q401 5 357 -5T255 -15Q153 -15 93 24T32 143Q32 211 74
247T199 292L333 306V318Q333 353 306 368T231 383Q193 383 156 374T90 352Q78 361 70 377T62 411Q62 453 107 472Q136 483 174 489T249 495ZM139 634Q139 679 172 710T264 741Q325 741 359 710T393 634Q393 589 359 558T264 527Q206 527 173 558T139 634ZM229
634Q229 616 239 607T265 597Q281 597 291 606T302 634Q302 651 292 661T265 671Q250 671 240 662T229 634Z" />
<glyph unicode="&#xe6;" horiz-adv-x="826" d="M406 270L654 309Q652 338 630 361T564 385Q519 385 489 355T457 267L462 199Q471 144 509 121T600 97Q642 97 679 108T738 134Q753 125 763 109T773 75Q773 45 749 25T684 -5T590 -15Q479 -15 414 48T342 221Q342
227 341 233T339 246Q339 332 370 386T453 468T564 495Q632 495 683 468T764 393T793 284Q793 253 777 238T730 217L411 170L406 270ZM255 94Q278 94 300 99T333 110V206L248 199Q214 196 195 184T175 148Q175 123 194 109T255 94ZM249 495Q345 495 396 450T447
317V88Q447 63 436 47T410 22Q381 5 346 -5T253 -15Q151 -15 92 24T32 143Q32 211 74 247T199 292L333 306V318Q333 353 306 368T231 383Q193 383 156 374T90 352Q78 361 70 377T62 411Q62 453 107 472Q136 483 174 489T249 495Z" />
<glyph unicode="&#xe7;" horiz-adv-x="486" d="M317 377Q262 377 224 342T185 238Q185 171 222 137T316 103Q349 103 373 111T416 129Q433 117 442 103T451 68Q451 31 411 9T300 -14Q221 -14 161 14T69 99T36 238Q36 325 71 381T166 466T296 495Q365 495 404 470T444
408Q444 390 436 376T416 351Q397 361 373 369T317 377ZM310 33Q346 12 360 -18T374 -84Q374 -134 343 -166T257 -199Q219 -199 197 -181T174 -130Q174 -114 178 -102H190Q222 -102 236 -87T250 -49Q250 -37 246 -22T230 4L310 33Z" />
<glyph unicode="&#xe8;" horiz-adv-x="542" d="M121 270L370 309Q367 338 345 361T280 385Q234 385 204 355T173 267L177 199Q187 144 225 121T315 97Q357 97 394 108T454 134Q468 125 478 109T488 75Q488 45 465 25T400 -5T305 -15Q228 -15 167 14T71 101T36
246Q36 310 56 357T110 434T188 480T279 495Q348 495 399 468T480 393T509 284Q509 253 492 238T445 217L127 170L121 270ZM121 643Q120 647 120 653T119 664Q119 695 137 713T184 731Q201 731 217 724T248 699L337 588Q334 557 316 542T276 527Q257 527 245 533T218
551L121 643Z" />
<glyph unicode="&#xe9;" horiz-adv-x="542" d="M121 270L370 309Q367 338 345 361T280 385Q234 385 204 355T173 267L177 199Q187 144 225 121T315 97Q357 97 394 108T454 134Q468 125 478 109T488 75Q488 45 465 25T400 -5T305 -15Q228 -15 167 14T71 101T36
246Q36 310 56 357T110 434T188 480T279 495Q348 495 399 468T480 393T509 284Q509 253 492 238T445 217L127 170L121 270ZM338 736Q382 736 405 717T428 672Q428 652 419 638T388 606L294 525Q257 525 237 543T217 583Q217 594 221 604T238 627L338 736Z" />
<glyph unicode="&#xea;" horiz-adv-x="542" d="M121 270L370 309Q367 338 345 361T280 385Q234 385 204 355T173 267L177 199Q187 144 225 121T315 97Q357 97 394 108T454 134Q468 125 478 109T488 75Q488 45 465 25T400 -5T305 -15Q228 -15 167 14T71 101T36
246Q36 310 56 357T110 434T188 480T279 495Q348 495 399 468T480 393T509 284Q509 253 492 238T445 217L127 170L121 270ZM280 624Q255 595 237 576T198 531Q164 531 144 547T123 587Q123 605 133 618T162 650L203 692Q220 709 239 719T283 729Q306 729 325 720T369
682L443 591Q443 567 429 550T385 533Q368 533 355 542T327 568L280 624Z" />
<glyph unicode="&#xeb;" horiz-adv-x="542" d="M121 270L370 309Q367 338 345 361T280 385Q234 385 204 355T173 267L177 199Q187 144 225 121T315 97Q357 97 394 108T454 134Q468 125 478 109T488 75Q488 45 465 25T400 -5T305 -15Q228 -15 167 14T71 101T36
246Q36 310 56 357T110 434T188 480T279 495Q348 495 399 468T480 393T509 284Q509 253 492 238T445 217L127 170L121 270ZM245 879Q245 848 224 827T168 806Q136 806 115 827T94 879Q94 910 115 931T168 953Q203 953 224 932T245 879ZM449 879Q449 848 429 827T373
806Q341 806 320 827T298 879Q298 910 319 931T373 953Q408 953 428 932T449 879Z" />
<glyph unicode="&#xec;" horiz-adv-x="272" d="M210 279V0Q200 -2 183 -5T144 -8Q102 -8 82 7T62 61V279H210ZM62 231V474Q72 477 89 479T128 482Q171 482 190 468T210 413V231H62ZM-19 643Q-20 647 -20 653T-21 664Q-21 695 -3 713T43 731Q61 731 77 724T108
699L197 588Q194 557 176 542T135 527Q117 527 104 533T78 551L-19 643Z" />
<glyph unicode="&#xed;" horiz-adv-x="272" d="M210 279V0Q200 -2 183 -5T144 -8Q102 -8 82 7T62 61V279H210ZM62 231V474Q72 477 89 479T128 482Q171 482 190 468T210 413V231H62ZM196 736Q240 736 263 717T286 672Q286 652 277 638T247 606L153 525Q115 525
95 543T75 583Q75 594 79 604T96 627L196 736Z" />
<glyph unicode="&#xee;" horiz-adv-x="272" d="M210 279V0Q200 -2 183 -5T144 -8Q102 -8 82 7T62 61V279H210ZM62 231V474Q72 477 89 479T128 482Q171 482 190 468T210 413V231H62ZM136 624Q111 595 93 576T53 531Q19 531 -1 547T-21 587Q-21 605 -11 618T17 650L58
692Q76 709 94 719T138 729Q162 729 181 720T224 682L298 591Q298 567 284 550T240 533Q223 533 210 542T182 568L136 624Z" />
<glyph unicode="&#xef;" horiz-adv-x="272" d="M210 279V0Q200 -2 183 -5T144 -8Q102 -8 82 7T62 61V279H210ZM62 231V474Q72 477 89 479T128 482Q171 482 190 468T210 413V231H62ZM109 623Q109 592 88 571T32 549Q-1 549 -22 570T-43 623Q-43 654 -22 675T32
697Q66 697 87 676T109 623ZM313 623Q313 592 292 571T238 549Q205 549 184 570T162 623Q162 654 183 675T238 697Q271 697 292 676T313 623Z" />
<glyph unicode="&#xf0;" horiz-adv-x="573" d="M327 533L145 466Q132 475 122 491T112 527Q112 556 143 569L214 598L302 633L441 689Q454 680 465 663T476 628Q476 608 467 598T443 581L376 553L327 533ZM394 282Q377 309 351 324T292 340Q240 340 214 308T187
223Q187 167 213 135T289 102Q338 102 361 135T385 226Q385 256 382 281T371 331Q369 346 370 357T372 380T368 403Q349 443 327 474T268 536Q260 543 248 553T226 569Q201 586 173 597T111 619Q114 659 134 678T184 698Q225 698 269 680T355 628Q362 621 369 616T384
603Q427 562 461 508T516 389T537 255Q537 175 510 114T428 19T288 -15Q172 -15 104 49T36 223Q36 300 69 351T154 427T264 452Q314 452 351 435T411 393L394 282Z" />
<glyph unicode="&#xf1;" horiz-adv-x="577" d="M519 217H372V306Q372 344 350 361T293 378Q268 378 247 372T208 357V217H61V373Q61 398 71 414T103 444Q135 466 184 480T294 495Q402 495 460 448T519 311V217ZM208 263V1Q199 -1 181 -4T142 -7Q100 -7 81 8T61
62V263H208ZM519 263V1Q510 -1 492 -4T453 -7Q411 -7 392 8T372 62V263H519ZM205 699Q233 699 258 692T306 677T343 669Q364 669 375 681T391 705H396Q424 705 445 686T466 635Q466 595 440 575T374 554Q343 554 318 562T273 577T235 585Q214 585 204 573T187 549H184Q155
549 134 567T113 618Q113 646 126 664T161 690T205 699Z" />
<glyph unicode="&#xf2;" horiz-adv-x="578" d="M542 240Q542 162 511 105T423 16T289 -15Q212 -15 155 15T67 103T36 240Q36 318 67 375T156 463T289 495Q365 495 422 464T510 375T542 240ZM289 378Q242 378 215 342T187 240Q187 173 214 137T289 101Q338 101
364 137T391 240Q391 305 364 341T289 378ZM157 643Q156 647 156 653T155 664Q155 695 173 713T220 731Q237 731 253 724T284 699L373 588Q370 557 352 542T312 527Q293 527 281 533T254 551L157 643Z" />
<glyph unicode="&#xf3;" horiz-adv-x="578" d="M542 240Q542 162 511 105T423 16T289 -15Q212 -15 155 15T67 103T36 240Q36 318 67 375T156 463T289 495Q365 495 422 464T510 375T542 240ZM289 378Q242 378 215 342T187 240Q187 173 214 137T289 101Q338 101
364 137T391 240Q391 305 364 341T289 378ZM330 736Q374 736 397 717T420 672Q420 652 411 638T380 606L286 525Q249 525 229 543T209 583Q209 594 213 604T230 627L330 736Z" />
<glyph unicode="&#xf4;" horiz-adv-x="578" d="M542 240Q542 162 511 105T423 16T289 -15Q212 -15 155 15T67 103T36 240Q36 318 67 375T156 463T289 495Q365 495 422 464T510 375T542 240ZM289 378Q242 378 215 342T187 240Q187 173 214 137T289 101Q338 101
364 137T391 240Q391 305 364 341T289 378ZM287 624Q262 595 244 576T205 531Q171 531 151 547T130 587Q130 605 140 618T169 650L210 692Q227 709 246 719T290 729Q313 729 332 720T376 682L450 591Q450 567 436 550T392 533Q375 533 362 542T334 568L287 624Z"
/>
<glyph unicode="&#xf5;" horiz-adv-x="578" d="M542 240Q542 162 511 105T423 16T289 -15Q212 -15 155 15T67 103T36 240Q36 318 67 375T156 463T289 495Q365 495 422 464T510 375T542 240ZM289 378Q242 378 215 342T187 240Q187 173 214 137T289 101Q338 101
364 137T391 240Q391 305 364 341T289 378ZM207 699Q235 699 260 692T308 677T345 669Q366 669 377 681T393 705H398Q426 705 447 686T468 635Q468 595 442 575T376 554Q345 554 320 562T275 577T237 585Q216 585 206 573T189 549H186Q157 549 136 567T115 618Q115
646 128 664T163 690T207 699Z" />
<glyph unicode="&#xf6;" horiz-adv-x="578" d="M542 240Q542 162 511 105T423 16T289 -15Q212 -15 155 15T67 103T36 240Q36 318 67 375T156 463T289 495Q365 495 422 464T510 375T542 240ZM289 378Q242 378 215 342T187 240Q187 173 214 137T289 101Q338 101
364 137T391 240Q391 305 364 341T289 378ZM262 879Q262 848 241 827T185 806Q153 806 132 827T111 879Q111 910 132 931T185 953Q220 953 241 932T262 879ZM466 879Q466 848 446 827T390 806Q358 806 337 827T315 879Q315 910 336 931T390 953Q425 953 445 932T466
879Z" />
<glyph unicode="&#xf7;" horiz-adv-x="524" d="M50 233Q44 243 40 257T35 289Q35 321 50 335T90 350H475Q480 341 484 325T489 292Q489 260 474 247T435 233H50ZM192 124Q192 155 212 176T265 197Q298 197 317 176T336 124Q336 93 317 72T265 51Q232 51 212 72T192
124ZM192 458Q192 490 212 511T265 532Q298 532 317 511T336 458Q336 427 317 407T265 386Q232 386 212 406T192 458Z" />
<glyph unicode="&#xf8;" horiz-adv-x="578" d="M383 451L443 541Q455 541 469 535T494 520T505 496Q505 487 498 476L436 387L383 451ZM136 -61Q123 -61 109 -55T84 -38T74 -16Q74 -6 82 5L135 83L210 47L136 -61ZM181 148L342 389L413 357L228 78L181 148ZM542
240Q542 162 511 105T423 16T289 -15Q213 -15 156 15T67 103T36 240Q36 318 67 375T156 463T289 495Q365 495 422 464T510 375T542 240ZM289 380Q242 380 210 345T177 240Q177 173 208 137T289 100Q338 100 369 135T401 240Q401 308 369 344T289 380Z" />
<glyph unicode="&#xf9;" horiz-adv-x="574" d="M58 259H205V188Q205 142 229 122T296 101Q323 101 341 106T369 117V259H516V99Q516 75 507 58T477 28Q445 8 399 -3T295 -15Q224 -15 171 6T88 71T58 187V259ZM369 214V478Q378 481 396 484T435 487Q478 487 497
473T516 417V214H369ZM58 214V478Q67 481 85 484T124 487Q167 487 186 473T205 417V214H58ZM124 643Q123 647 123 653T122 664Q122 695 140 713T187 731Q204 731 220 724T251 699L340 588Q337 557 319 542T279 527Q260 527 248 533T221 551L124 643Z" />
<glyph unicode="&#xfa;" horiz-adv-x="574" d="M58 259H205V188Q205 142 229 122T296 101Q323 101 341 106T369 117V259H516V99Q516 75 507 58T477 28Q445 8 399 -3T295 -15Q224 -15 171 6T88 71T58 187V259ZM369 214V478Q378 481 396 484T435 487Q478 487 497
473T516 417V214H369ZM58 214V478Q67 481 85 484T124 487Q167 487 186 473T205 417V214H58ZM356 736Q400 736 423 717T446 672Q446 652 437 638T406 606L312 525Q275 525 255 543T235 583Q235 594 239 604T256 627L356 736Z" />
<glyph unicode="&#xfb;" horiz-adv-x="574" d="M58 259H205V188Q205 142 229 122T296 101Q323 101 341 106T369 117V259H516V99Q516 75 507 58T477 28Q445 8 399 -3T295 -15Q224 -15 171 6T88 71T58 187V259ZM369 214V478Q378 481 396 484T435 487Q478 487 497
473T516 417V214H369ZM58 214V478Q67 481 85 484T124 487Q167 487 186 473T205 417V214H58ZM285 624Q260 595 242 576T203 531Q169 531 149 547T128 587Q128 605 138 618T167 650L208 692Q225 709 244 719T288 729Q311 729 330 720T374 682L448 591Q448 567 434
550T390 533Q373 533 360 542T332 568L285 624Z" />
<glyph unicode="&#xfc;" horiz-adv-x="574" d="M58 259H205V188Q205 142 229 122T296 101Q323 101 341 106T369 117V259H516V99Q516 75 507 58T477 28Q445 8 399 -3T295 -15Q224 -15 171 6T88 71T58 187V259ZM369 214V478Q378 481 396 484T435 487Q478 487 497
473T516 417V214H369ZM58 214V478Q67 481 85 484T124 487Q167 487 186 473T205 417V214H58ZM258 879Q258 848 237 827T181 806Q149 806 128 827T107 879Q107 910 128 931T181 953Q216 953 237 932T258 879ZM462 879Q462 848 442 827T386 806Q354 806 333 827T311
879Q311 910 332 931T386 953Q421 953 441 932T462 879Z" />
<glyph unicode="&#xfd;" horiz-adv-x="536" d="M138 119Q123 152 104 199T65 310T23 458Q35 471 55 480T100 490Q131 490 151 477T181 428Q203 355 226 283T274 137H278Q295 182 312 239T345 357T371 474Q385 481 401 485T434 490Q465 490 487 477T509 431Q509
403 501 362T479 274T446 177T406 81T364 -2Q310 -96 265 -142T175 -189Q139 -189 116 -168T88 -112Q109 -93 132 -70T176 -20T214 33Q197 38 179 55T138 119ZM312 736Q356 736 379 717T402 672Q402 652 393 638T362 606L268 525Q231 525 211 543T191 583Q191 594
195 604T212 627L312 736Z" />
<glyph unicode="&#xfe;" horiz-adv-x="579" d="M207 54V591Q207 630 188 645T126 660Q105 660 87 657T60 651V54H207ZM297 -14Q368 -14 423 15T510 101T542 243Q542 331 509 386T422 468T301 495Q260 495 227 485T174 464L181 344Q206 363 231 370T280 378Q312
378 337 364T377 321T391 243Q391 173 361 138T275 103Q243 103 219 114T177 141V16Q200 4 230 -5T297 -14ZM60 91V-109Q60 -149 79 -164T141 -179Q162 -179 180 -176T207 -170V91H60Z" />
<glyph unicode="&#xff;" horiz-adv-x="536" d="M138 119Q123 152 104 199T65 310T23 458Q35 471 55 480T100 490Q131 490 151 477T181 428Q203 355 226 283T274 137H278Q295 182 312 239T345 357T371 474Q385 481 401 485T434 490Q465 490 487 477T509 431Q509
403 501 362T479 274T446 177T406 81T364 -2Q310 -96 265 -142T175 -189Q139 -189 116 -168T88 -112Q109 -93 132 -70T176 -20T214 33Q197 38 179 55T138 119ZM238 879Q238 848 217 827T161 806Q129 806 108 827T87 879Q87 910 108 931T161 953Q196 953 217 932T238
879ZM442 879Q442 848 422 827T366 806Q334 806 313 827T291 879Q291 910 312 931T366 953Q401 953 421 932T442 879Z" />
<glyph unicode="&#x2013;" horiz-adv-x="539" d="M44 197Q39 207 34 222T29 255Q29 287 44 301T83 316H495Q500 307 505 291T511 258Q511 226 496 212T457 197H44Z" />
<glyph unicode="&#x2014;" horiz-adv-x="774" d="M52 197Q46 207 41 222T36 256Q36 288 51 302T91 317H722Q727 308 732 292T738 259Q738 227 723 212T683 197H52Z" />
<glyph unicode="&#x2018;" horiz-adv-x="200" d="M67 602Q77 619 90 626T124 634Q140 634 154 630T181 620Q178 584 174 543T167 462T162 389Q149 382 130 376T93 370Q64 370 42 382T19 428Q19 453 26 486T44 552T67 602Z" />
<glyph unicode="&#x2019;" horiz-adv-x="198" d="M134 402Q124 386 111 378T77 370Q60 370 46 374T19 384Q23 421 27 462T34 542T39 615Q51 622 70 627T108 633Q136 633 158 621T181 576Q181 551 175 518T157 453T134 402Z" />
<glyph unicode="&#x201a;" horiz-adv-x="204" d="M134 -100Q124 -116 111 -124T77 -132Q60 -132 46 -128T19 -118Q23 -81 27 -40T34 40T39 113Q51 120 70 125T108 131Q136 131 158 119T181 74Q181 49 175 16T157 -49T134 -100Z" />
<glyph unicode="&#x201c;" horiz-adv-x="379" d="M253 602Q263 619 275 626T307 634Q323 634 335 631T360 621Q357 585 353 544T346 462T340 387Q327 381 310 376T275 370Q245 370 226 382T206 428Q206 453 212 486T230 552T253 602ZM66 602Q76 619 88 626T120
634Q136 634 148 631T173 621Q170 585 166 544T159 462T153 387Q140 381 123 376T88 370Q58 370 38 382T18 428Q18 453 25 486T43 552T66 602Z" />
<glyph unicode="&#x201d;" horiz-adv-x="379" d="M126 402Q117 386 105 378T73 370Q56 370 44 373T19 383Q23 419 27 461T34 543T39 617Q51 624 68 628T104 633Q134 633 153 621T173 576Q173 551 167 518T150 453T126 402ZM314 402Q304 386 292 378T260 370Q243
370 231 373T206 383Q210 419 214 461T221 543T226 617Q239 624 256 628T291 633Q321 633 340 621T360 576Q360 551 354 518T337 453T314 402Z" />
<glyph unicode="&#x201e;" horiz-adv-x="382" d="M126 -100Q117 -116 105 -124T73 -132Q56 -132 44 -129T19 -119Q23 -83 27 -41T34 41T39 115Q51 122 68 126T104 131Q134 131 153 119T173 74Q173 49 167 16T150 -49T126 -100ZM314 -100Q304 -116 292 -124T260
-132Q243 -132 231 -129T206 -119Q210 -83 214 -41T221 41T226 115Q239 122 256 126T291 131Q321 131 340 119T360 74Q360 49 354 16T337 -49T314 -100Z" />
<glyph unicode="&#x2022;" horiz-adv-x="301" d="M39 282Q39 329 69 362T150 395Q201 395 231 362T262 282Q262 235 232 203T150 170Q99 170 69 202T39 282Z" />
<glyph unicode="&#x2039;" horiz-adv-x="314" d="M280 91Q280 66 263 46T212 25Q192 25 176 35T145 62L44 167Q39 176 35 190T31 219Q31 247 38 264T55 291L202 435Q235 426 252 408T269 369Q269 349 261 334T228 295L152 222L280 91Z" />
<glyph unicode="&#x203a;" horiz-adv-x="314" d="M34 369Q34 394 50 414T102 435Q122 435 138 425T169 397L269 293Q275 284 279 270T283 240Q283 212 276 196T258 169L112 25Q79 34 62 52T44 91Q44 111 52 126T86 165L161 238L34 369Z" />
</font>
</defs>
</svg>
