<?xml version="1.0" encoding="UTF-8" standalone="no"?>
<svg
   xmlns:dc="http://purl.org/dc/elements/1.1/"
   xmlns:cc="http://creativecommons.org/ns#"
   xmlns:rdf="http://www.w3.org/1999/02/22-rdf-syntax-ns#"
   xmlns:svg="http://www.w3.org/2000/svg"
   xmlns="http://www.w3.org/2000/svg"
   xmlns:sodipodi="http://sodipodi.sourceforge.net/DTD/sodipodi-0.dtd"
   xmlns:inkscape="http://www.inkscape.org/namespaces/inkscape"
   id="svg8868"
   version="1.1"
   viewBox="0 0 52.916665 52.916668"
   height="200"
   width="200"
   sodipodi:docname="favicon-malie.svg"
   inkscape:version="0.92.4 (5da689c313, 2019-01-14)">
  <sodipodi:namedview
     pagecolor="#ffffff"
     bordercolor="#666666"
     borderopacity="1"
     objecttolerance="10"
     gridtolerance="10"
     guidetolerance="10"
     inkscape:pageopacity="0"
     inkscape:pageshadow="2"
     inkscape:window-width="1920"
     inkscape:window-height="1017"
     id="namedview4760"
     showgrid="false"
     fit-margin-top="0"
     fit-margin-left="0"
     fit-margin-right="0"
     fit-margin-bottom="0"
     inkscape:zoom="2.352219"
     inkscape:cx="206.33076"
     inkscape:cy="107.49206"
     inkscape:window-x="1912"
     inkscape:window-y="-8"
     inkscape:window-maximized="1"
     inkscape:current-layer="svg8868" />
  <defs
     id="defs8862" />
  <metadata
     id="metadata8865">
    <rdf:RDF>
      <cc:Work
         rdf:about="">
        <dc:format>image/svg+xml</dc:format>
        <dc:type
           rdf:resource="http://purl.org/dc/dcmitype/StillImage" />
        <dc:title></dc:title>
      </cc:Work>
    </rdf:RDF>
  </metadata>
  <g
     transform="matrix(0.89530495,0,0,0.89530495,-39.441404,-88.922306)"
     id="layer1">
    <path
       id="path4991-4-0-6-58-3-34-1-9-0-9-3-0-9-0-19-41-5-0-3"
       d="m 57.184962,121.30205 c 6.373682,8.57533 9.636886,10.15094 14.151118,11.82019 4.849691,-2.43643 8.636059,-6.65723 11.888453,-12.48108 -0.01009,3.77086 -5.614457,11.66014 -11.124964,15.9657 -7.758526,-2.60979 -12.927745,-9.2358 -14.914607,-15.30481 z"
       style="fill:#ff887a;fill-opacity:1;stroke:none;stroke-width:0.0333053px;stroke-linecap:butt;stroke-linejoin:miter;stroke-opacity:1"
       inkscape:connector-curvature="0" />
    <path
       id="path4993-0-3-4-45-7-5-5-7-4-3-0-6-4-2-1-7-6-7-9-04-0"
       d="m 66.333877,121.24317 c 8.25261,-2.30518 7.016509,-9.91773 4.644705,-13.19757 -3.947625,-4.74361 -9.702652,-4.22713 -13.457023,-1.16713 -8.06732,7.23493 0.05538,19.16391 0.335241,25.09826 -0.175193,12.35025 -7.994223,18.39011 -9.90849,22.60579 12.602384,-10.93484 13.373339,-19.76109 12.886365,-23.58941 -1.167915,-7.46587 -5.042945,-9.91546 -4.14991,-18.26782 1.547311,-7.46893 12.139869,-7.7266 14.012753,-0.99358 1.216903,4.74268 -0.05532,7.25321 -4.363641,9.51146 z"
       style="fill:#ff887a;fill-opacity:1;stroke:none;stroke-width:0.03048912px;stroke-linecap:butt;stroke-linejoin:miter;stroke-opacity:1"
       inkscape:connector-curvature="0" />
    <path
       id="path4997-0-9-9-1-6-3-4-6-8-4-4-4-9-9-0-1-2-4-8"
       d="m 78.959584,106.72226 c -2.893403,0.78723 -7.29978,5.72395 -1.143099,10.06747 -5.132818,-4.76409 0.725235,-10.24565 4.263315,-8.06049 2.426482,1.40695 3.696853,4.67442 1.160733,8.09263 3.690595,3.11403 4.828644,9.21141 3.128536,11.99226 3.740722,-2.68188 2.561148,-9.55974 -1.796592,-12.31869 4.552417,-6.28146 -2.560579,-10.60265 -5.612893,-9.77318 z"
       style="fill:#ff887a;fill-opacity:1;stroke:none;stroke-width:0.0355389px;stroke-linecap:butt;stroke-linejoin:miter;stroke-opacity:1"
       inkscape:connector-curvature="0" />
    <path
       id="path8883-9"
       d="m 84.524697,130.06836 c -2.947088,2.53427 -4.447399,20.39255 5.113762,23.31738 7.503713,1.21777 10.954551,-5.41687 10.954551,-5.41687 0,0 -3.133713,4.36384 -9.794745,2.95655 -8.194872,-1.91519 -8.064686,-17.15111 -6.273568,-20.85706 z"
       style="fill:#ff887a;fill-opacity:1;stroke:none;stroke-width:0.01533904px;stroke-linecap:butt;stroke-linejoin:miter;stroke-opacity:1"
       inkscape:connector-curvature="0"
       sodipodi:nodetypes="ccccc" />
    <g
       id="flowRoot5790-1-3-0-0"
       style="font-style:normal;font-weight:normal;font-size:2.66666675px;line-height:1.25;font-family:sans-serif;letter-spacing:0px;word-spacing:0px;fill:#ff887a;fill-opacity:1;stroke:none"
       transform="matrix(0.13164769,0,0,0.13164769,-3819.5524,-3076.6039)"
       aria-label="lie" />
  </g>
</svg>
