<svg width="353.406" height="315.98" viewBox="0 0 93.505 83.603" xml:space="preserve" xmlns="http://www.w3.org/2000/svg">
  <path d="M17.438 21.937H6.562a2.5 2.5 0 0 1-2.5-2.5v-.827c0-3.969 3.561-7.2 7.938-7.2s7.938 3.229 7.938 7.2v.827a2.5 2.5 0 0 1-2.5 2.5z" style="fill:#000" transform="matrix(3.44267 0 0 3.44267 -13.984 8.081)"/>
  <path d="M27.328 42.202c-12.037.003-18.066-14.549-9.557-23.06 8.51-8.512 23.063-2.486 23.063 9.55-.006 7.458-6.049 13.502-13.506 13.51Z"/>
  <path d="M29.477 11.532h-7.592a1.745 1.745 0 0 1-1.746-1.745V9.21c0-2.771 2.486-5.027 5.542-5.027 3.056 0 5.542 2.254 5.542 5.027v.577c0 .964-.782 1.745-1.746 1.745z" style="fill:#000;stroke-width:.698111" transform="matrix(3.44267 0 0 3.44267 -13.984 8.081)"/>
  <path d="M25.681 3.137c-2.44 0-3.663-2.95-1.938-4.676C25.47-3.265 28.42-2.043 28.42.397a2.742 2.742 0 0 1-2.739 2.74Z" style="stroke-width:.698111" transform="matrix(3.44267 0 0 3.44267 -13.984 8.081)"/>
</svg>
