<svg xmlns="http://www.w3.org/2000/svg" viewBox="0 0 105.625 50.052" height="189.173" width="399.214" fill="#ff887a" xmlns:v="https://vecta.io/nano"><path d="M9.237 16.771c6.374 8.575 9.637 10.151 14.151 11.82 4.85-2.436 8.636-6.657 11.888-12.481-.01 3.771-5.614 11.66-11.125 15.966-7.759-2.61-12.928-9.236-14.915-15.305z"/><path d="M18.386 16.712c8.253-2.305 7.017-9.918 4.645-13.198C19.083-1.23 13.328-.713 9.574 2.347c-8.067 7.235.055 19.164.335 25.098C9.734 39.796 1.915 45.836 0 50.052c12.603-10.935 13.374-19.762 12.887-23.59-1.168-7.466-5.043-9.915-4.15-18.268C10.284.725 20.877.468 22.75 7.201c1.217 4.743-.055 7.253-4.364 9.511zM31.012 2.191c-2.893.787-7.3 5.724-1.143 10.067-5.133-4.764.725-10.246 4.263-8.06 2.426 1.407 3.697 4.674 1.161 8.093 3.691 3.114 4.829 9.211 3.129 11.992 3.741-2.682 2.561-9.56-1.797-12.319 4.552-6.281-2.561-10.603-5.613-9.773zm5.565 23.346c-2.947 2.534-4.447 20.393 5.114 23.317 6.02 1.073 10.333-1.554 13.787-4.88-.778 5.51 5.598 6.09 7.066 1.713-.954 1.157-2.82 2.201-3.948.676-1.274-1.962-1.065-4.185-.742-6.429 1-3.312.556-7.113-.893-8.758-2.09-2.372-6.053-2.841-9.002-1.731-4.101 1.543-8.256 8.702-2.008 14.996-4.394-9.88 3.573-15.834 8.787-12.021 3.171 2.429 1.585 7.797-1.183 10.113s-5.724 4.482-10.705 3.861c-8.195-1.915-8.065-17.151-6.274-20.857zm32.542 22.672c-1.337 0-2.455-.364-3.277-1.392-.823-1.04-1.234-2.394-1.234-4.063 0-.937.171-2.263.514-3.977l3.411-17.176c.806-6.048-4.382-2.836-5.071-2.699 1.546-4.538 8.073-3.576 7.852-.365l-3.817 20.888c-.354 1.851-.478 2.966-.478 3.663 0 1.931 1.203 3.045 2.62 3.045 2.566-.044 3.229-.976 4.273-1.751.678-.503-.815 3.814-4.793 3.827zm12.606-.221c-1.28 0-1.979-.045-2.768-.879-.777-.834-1.166-1.931-1.166-3.291 0-.514.114-1.331.343-2.451l.377-1.886c.56-2.72.675-4.032.784-5.123.15-1.517-.119-1.879-2.596-1.425 1.413-2.211 5.049-1.594 5.078.497 0 .88-.166 2.143-.497 3.788l-.669 3.343-.497 3.137c0 1.417 1.185 2.534 2.385 2.534 2.134-.059 2.511-.636 3.46-1.705.625-.704-.577 3.173-4.236 3.461zM92.13 40.8c0 3.348.663 4.454 3.723 5.621 3.13.854 7.147-2.046 7.221-2.604 0 0-1.357 4.589-6.713 4.543-2.057 0-3.685-.663-4.885-1.989-1.189-1.326-1.783-3.137-1.783-5.434 0-3.314 1.08-6.148 3.24-8.502 2.171-2.354 4.783-3.531 7.834-3.531 1.474 0 2.651.371 3.531 1.114.891.743 1.337 1.737 1.337 2.983 0 2.046-1.234 3.857-3.703 5.434-2.457 1.577-6.602 2.366-9.802 2.366zm.137-1.646c3.61-.313 11.061-2.372 11.249-6.377 0-1.463-1.875-2.194-3.178-2.194-1.554 0-4.212.834-5.526 2.503a12.33 12.33 0 0 0-2.544 6.068z"/><circle transform="matrix(1 0 0 -1 -47.948 -104.531)" r="2.527" cy="-130.864" cx="129.57" paint-order="markers fill stroke"/></svg>